<svg xmlns="http://www.w3.org/2000/svg" width="100%" height="100%" viewBox="0 0 346.286 80.912">
                            <defs>
                                <style>
                                    .a {
                                        fill: #fff;
                                    }
                                </style>
                            </defs>
                            <g transform="translate(-7.3 -8.4)">
                                <path class="a"
                                    d="M347.629,260.1a8.648,8.648,0,0,1-1.533-.126,9.589,9.589,0,0,1-1.425-.325v-1.876a10.858,10.858,0,0,0,1.461.343,8.98,8.98,0,0,0,1.5.126,2.783,2.783,0,0,0,1.479-.307,1.012,1.012,0,0,0,.451-.92,1.071,1.071,0,0,0-.144-.559,1.414,1.414,0,0,0-.469-.4,4.3,4.3,0,0,0-.92-.325l-.794-.216a4.33,4.33,0,0,1-2.128-1.1,2.675,2.675,0,0,1-.7-1.93,2.782,2.782,0,0,1,1.118-2.363,5.432,5.432,0,0,1,3.3-.83c.469,0,.92.036,1.353.072a7.094,7.094,0,0,1,1.172.234V251.5a6.363,6.363,0,0,0-1.136-.234,9.627,9.627,0,0,0-1.245-.09,3.3,3.3,0,0,0-1.7.325.956.956,0,0,0-.379.379.9.9,0,0,0-.126.523,1,1,0,0,0,.126.541,1.189,1.189,0,0,0,.415.379,4.864,4.864,0,0,0,.812.307l.794.2a4.785,4.785,0,0,1,2.273,1.118,2.655,2.655,0,0,1,.721,1.948,2.926,2.926,0,0,1-.505,1.732,3.185,3.185,0,0,1-1.461,1.118A6.745,6.745,0,0,1,347.629,260.1Zm12.716-.126-.866-2.814h-3.932l-.866,2.814h-2.273l3.427-10.533h3.409l3.427,10.533Zm-4.239-4.653h2.8l-1.389-4.491Zm7.593,4.653V249.426h2.327v8.6h4.87v1.93h-7.2Zm12.409.126a4.642,4.642,0,0,1-3.391-1.1,4.7,4.7,0,0,1-1.082-3.391v-6.187h2.345v6.4a2.627,2.627,0,0,0,.523,1.8,2.521,2.521,0,0,0,3.211,0,2.626,2.626,0,0,0,.523-1.8v-6.4h2.291v6.169a4.668,4.668,0,0,1-1.082,3.391,4.31,4.31,0,0,1-3.337,1.118Zm9.2-.018a24.945,24.945,0,0,1-2.9-.162V249.679a16.215,16.215,0,0,1,3.373-.343,6.336,6.336,0,0,1,4.383,1.317,5.214,5.214,0,0,1,1.461,4.058,5.936,5.936,0,0,1-.7,3.066,4.15,4.15,0,0,1-2.074,1.75,9.88,9.88,0,0,1-3.535.559Zm.613-1.894a4.274,4.274,0,0,0,1.858-.343,2.184,2.184,0,0,0,1.082-1.118,4.88,4.88,0,0,0,.361-2.02,4.6,4.6,0,0,0-.361-2.02,2.251,2.251,0,0,0-1.082-1.118,4.229,4.229,0,0,0-1.84-.361,6.952,6.952,0,0,0-1.19.108v6.836C385.037,258.174,385.433,258.192,385.92,258.192Z"
                                    transform="translate(-276.298 -197.45)"></path>
                                <path class="a"
                                    d="M16.12,158.6h2.9v10.75H16.787v-7.611l-2.651,6.042H12.17l-2.651-5.844v7.413H7.3V158.6h2.9l2.994,6.782Z"
                                    transform="translate(0 -123.109)"></path>
                                <path class="a" d="M83.2,158.6h2.381v10.75H83.2Z"
                                    transform="translate(-62.21 -123.109)">
                                </path>
                                <path class="a"
                                    d="M114.27,158.6h2.255v10.75h-2.4l-4.69-7.2v7.2H107.2V158.6h2.4l4.69,7.2v-7.2Z"
                                    transform="translate(-81.881 -123.109)"></path>
                                <path class="a" d="M169.6,158.6h2.381v10.75H169.6Z"
                                    transform="translate(-133.026 -123.109)"></path>
                                <path class="a"
                                    d="M192.113,168.812a10.7,10.7,0,0,1-1.461-.343v-1.912a8.7,8.7,0,0,0,1.5.343,9.187,9.187,0,0,0,1.515.126,2.739,2.739,0,0,0,1.515-.325,1.046,1.046,0,0,0,.469-.92,1.1,1.1,0,0,0-.144-.577,1.414,1.414,0,0,0-.469-.4,4.446,4.446,0,0,0-.938-.325l-.812-.216a4.394,4.394,0,0,1-2.164-1.118,2.82,2.82,0,0,1-.721-1.984,2.85,2.85,0,0,1,1.136-2.417,5.507,5.507,0,0,1,3.373-.848,11.411,11.411,0,0,1,1.371.09,7.325,7.325,0,0,1,1.19.234v1.93a8.216,8.216,0,0,0-1.154-.253,9.906,9.906,0,0,0-1.263-.09,3.407,3.407,0,0,0-1.732.325,1,1,0,0,0-.4.379.9.9,0,0,0-.126.523,1.089,1.089,0,0,0,.126.541,1.188,1.188,0,0,0,.415.379,4.569,4.569,0,0,0,.83.307l.812.2a4.85,4.85,0,0,1,2.309,1.136,2.68,2.68,0,0,1,.74,1.984,3.011,3.011,0,0,1-.523,1.768,3.115,3.115,0,0,1-1.5,1.136,6.04,6.04,0,0,1-2.327.4A7.629,7.629,0,0,1,192.113,168.812Z"
                                    transform="translate(-150.075 -122.535)"></path>
                                <path class="a" d="M236.209,169.45v-8.784H232.8V158.7H242v1.966H238.59v8.784Z"
                                    transform="translate(-184.827 -123.191)"></path>
                                <path class="a"
                                    d="M292.045,167.556h5.321v1.894H289.7V158.7h7.593v1.894h-5.249v2.417h4.509v1.876h-4.509Z"
                                    transform="translate(-231.464 -123.191)"></path>
                                <path class="a"
                                    d="M342.845,163.022c.4.036.794.072,1.172.072a3.011,3.011,0,0,0,1.75-.415,1.494,1.494,0,0,0,.559-1.317,1.517,1.517,0,0,0-.541-1.3,2.735,2.735,0,0,0-1.659-.415,7.67,7.67,0,0,0-1.281.108Zm4.022,5.772-2.76-3.95h-.126c-.343,0-.721-.018-1.136-.036v3.986H340.5V158.279a14.837,14.837,0,0,1,1.641-.271,13.944,13.944,0,0,1,1.732-.108,5.921,5.921,0,0,1,3.517.848,3.026,3.026,0,0,1,1.172,2.615,3.339,3.339,0,0,1-.559,1.93,3.285,3.285,0,0,1-1.605,1.172l3.066,4.329Z"
                                    transform="translate(-273.102 -122.535)"></path>
                                <path class="a" d="M396.3,158.6h2.381v10.75H396.3Z"
                                    transform="translate(-318.837 -123.109)"></path>
                                <path class="a"
                                    d="M425.188,166.161a5.825,5.825,0,0,0,0-5.483,2.337,2.337,0,0,0-1.966-.866,2.436,2.436,0,0,0-1.984.848,4.348,4.348,0,0,0-.685,2.706,4.588,4.588,0,0,0,.667,2.8,2.373,2.373,0,0,0,1.984.866A2.477,2.477,0,0,0,425.188,166.161Zm-4.69,2.164a4.148,4.148,0,0,1-1.768-1.84,7.763,7.763,0,0,1,0-6.132,4.158,4.158,0,0,1,1.768-1.84,5.551,5.551,0,0,1,2.706-.613,5.76,5.76,0,0,1,2.705.613,4.253,4.253,0,0,1,1.768,1.84,7.762,7.762,0,0,1,0,6.132,4.067,4.067,0,0,1-1.768,1.84,5.6,5.6,0,0,1-2.705.613A6.1,6.1,0,0,1,420.5,168.325Z"
                                    transform="translate(-336.705 -122.535)"></path>
                                <path class="a"
                                    d="M509.283,166.694a2.327,2.327,0,0,0,1.1-1.136,5.1,5.1,0,0,0,.361-2.074,4.757,4.757,0,0,0-.379-2.056,2.288,2.288,0,0,0-1.1-1.154,4.344,4.344,0,0,0-1.876-.361,7.157,7.157,0,0,0-1.208.108V167a10.576,10.576,0,0,0,1.19.054A4.517,4.517,0,0,0,509.283,166.694ZM503.8,168.8V158.361a13.608,13.608,0,0,1,1.677-.271,14.877,14.877,0,0,1,1.768-.09,6.421,6.421,0,0,1,4.455,1.353,5.322,5.322,0,0,1,1.5,4.148,6.148,6.148,0,0,1-.7,3.12,4.109,4.109,0,0,1-2.128,1.786,9.708,9.708,0,0,1-3.589.577C505.73,168.966,504.738,168.912,503.8,168.8Z"
                                    transform="translate(-406.948 -122.617)"></path>
                                <path class="a"
                                    d="M566.945,167.556h5.339v1.894H564.6V158.7h7.611v1.894h-5.249v2.417h4.509v1.876h-4.509v2.669Z"
                                    transform="translate(-456.782 -123.191)"></path>
                                <path class="a"
                                    d="M1062.206,162.588v3.463a11.347,11.347,0,0,1-1.822.162,4.594,4.594,0,0,1-3.138-.9,3.511,3.511,0,0,1-1.046-2.778,3.55,3.55,0,0,1,1.064-2.8,4.475,4.475,0,0,1,3.084-.938,6.939,6.939,0,0,1,1.641.18V160.3a6.937,6.937,0,0,0-1.5-.18,3.761,3.761,0,0,0-1.479.253,1.691,1.691,0,0,0-.848.776,3.152,3.152,0,0,0-.271,1.407,2.039,2.039,0,0,0,2.363,2.345h.451v-2.291h1.5Z"
                                    transform="translate(-859.713 -123.273)"></path>
                                <path class="a"
                                    d="M1100.08,164.091a2.9,2.9,0,0,0,.469-1.822,3.009,3.009,0,0,0-.469-1.876,1.592,1.592,0,0,0-1.335-.6,1.631,1.631,0,0,0-1.335.577,2.9,2.9,0,0,0-.469,1.822,3.019,3.019,0,0,0,.451,1.876,1.63,1.63,0,0,0,1.335.577A1.516,1.516,0,0,0,1100.08,164.091Zm-3.174,1.461a2.741,2.741,0,0,1-1.19-1.245,5.394,5.394,0,0,1,0-4.148,2.843,2.843,0,0,1,1.19-1.245,3.9,3.9,0,0,1,1.84-.415,3.954,3.954,0,0,1,1.84.415,2.748,2.748,0,0,1,1.19,1.245,4.449,4.449,0,0,1,.415,2.056,4.58,4.58,0,0,1-.415,2.056,2.694,2.694,0,0,1-1.208,1.245,3.827,3.827,0,0,1-1.822.415A3.549,3.549,0,0,1,1096.905,165.552Z"
                                    transform="translate(-891.761 -123.027)"></path>
                                <path class="a"
                                    d="M1142.9,164.587a.87.87,0,0,0,.523-.343,1.14,1.14,0,0,0-.18-1.353,1.823,1.823,0,0,0-1.064-.234h-1.19v1.984a6.818,6.818,0,0,0,.9.036A3.206,3.206,0,0,0,1142.9,164.587Zm-1.912-4.888v1.786h1.028a1.66,1.66,0,0,0,1.028-.234.773.773,0,0,0,.307-.7.82.82,0,0,0-.144-.541.914.914,0,0,0-.433-.307,2.552,2.552,0,0,0-.83-.09A4.291,4.291,0,0,0,1140.987,159.7Zm3.715,2.9a1.749,1.749,0,0,1,.361,1.136,1.837,1.837,0,0,1-.361,1.154,2.147,2.147,0,0,1-1.154.7,7.347,7.347,0,0,1-2.092.234,15.76,15.76,0,0,1-2.056-.144v-7.034a9.39,9.39,0,0,1,1.136-.18,9.236,9.236,0,0,1,1.208-.072,4.218,4.218,0,0,1,2.363.505,1.679,1.679,0,0,1,.74,1.515,1.662,1.662,0,0,1-.307.992,1.579,1.579,0,0,1-.866.577A2.118,2.118,0,0,1,1144.7,162.6Z"
                                    transform="translate(-927.907 -122.945)"></path>
                                <path class="a" d="M1175.9,159.1h1.605v7.251H1175.9Z"
                                    transform="translate(-957.824 -123.519)"></path>
                                <path class="a"
                                    d="M1193.787,165.088h3.607v1.281H1192.2V159.1h5.14v1.281h-3.553V162h3.048v1.281h-3.048Z"
                                    transform="translate(-971.184 -123.519)"></path>
                                <path class="a"
                                    d="M1228.005,162.063a6.116,6.116,0,0,0,.794.036,2.008,2.008,0,0,0,1.172-.271,1.026,1.026,0,0,0,.379-.884,1.066,1.066,0,0,0-.361-.884,1.881,1.881,0,0,0-1.136-.271,4.678,4.678,0,0,0-.866.072v2.2Zm2.724,3.9-1.876-2.669h-.09c-.234,0-.487,0-.776-.018v2.687H1226.4v-7.106c.343-.072.721-.126,1.118-.18a8.7,8.7,0,0,1,1.172-.072,4.1,4.1,0,0,1,2.381.577,2.036,2.036,0,0,1,.794,1.75,2.131,2.131,0,0,1-.379,1.3,2.364,2.364,0,0,1-1.082.794l2.074,2.922h-1.75Z"
                                    transform="translate(-999.215 -123.109)"></path>
                                <path class="a"
                                    d="M1269,159.1h1.515v7.251h-1.623l-3.174-4.852v4.852H1264.2V159.1h1.623l3.174,4.87Z"
                                    transform="translate(-1030.197 -123.519)"></path>
                                <path class="a"
                                    d="M1309.98,164.091a2.91,2.91,0,0,0,.451-1.822,3.009,3.009,0,0,0-.469-1.876,1.592,1.592,0,0,0-1.335-.6,1.631,1.631,0,0,0-1.335.577,2.9,2.9,0,0,0-.469,1.822,3.019,3.019,0,0,0,.451,1.876,1.631,1.631,0,0,0,1.335.577A1.549,1.549,0,0,0,1309.98,164.091Zm-3.174,1.461a2.741,2.741,0,0,1-1.19-1.245,4.478,4.478,0,0,1-.415-2.074,4.719,4.719,0,0,1,.415-2.074,2.843,2.843,0,0,1,1.19-1.245,4.287,4.287,0,0,1,3.679,0,2.659,2.659,0,0,1,1.19,1.245,4.69,4.69,0,0,1,.415,2.056,4.58,4.58,0,0,1-.415,2.056,2.835,2.835,0,0,1-1.19,1.245,4.464,4.464,0,0,1-3.679.036Z"
                                    transform="translate(-1063.802 -123.027)"></path>
                                <path class="a"
                                    d="M1366.8,164.562a1.664,1.664,0,0,0,.758-.776,4.082,4.082,0,0,0-.018-2.778,1.513,1.513,0,0,0-.758-.776,2.913,2.913,0,0,0-1.263-.253,4.241,4.241,0,0,0-.812.072v4.708c.216.018.469.036.812.036A2.668,2.668,0,0,0,1366.8,164.562Zm-3.7,1.425v-7.052c.343-.072.721-.126,1.136-.18q.622-.054,1.19-.054a4.33,4.33,0,0,1,3.012.92,3.6,3.6,0,0,1,1.01,2.8,4.062,4.062,0,0,1-.487,2.11,2.84,2.84,0,0,1-1.443,1.208,6.7,6.7,0,0,1-2.435.379,17.469,17.469,0,0,1-1.984-.126Z"
                                    transform="translate(-1111.259 -123.191)"></path>
                                <path class="a"
                                    d="M1405.787,165.088h3.607v1.281H1404.2V159.1h5.14v1.281h-3.553V162h3.048v1.281h-3.048Z"
                                    transform="translate(-1144.946 -123.519)"></path>
                                <path class="a" d="M1452.3,166.451V159.2h1.605v5.916h3.355v1.335Z"
                                    transform="translate(-1184.37 -123.601)"></path>
                                <path class="a"
                                    d="M1483.143,163.158h1.93l-.974-3.084Zm2.922,3.211-.6-1.93h-2.705l-.6,1.93H1480.6l2.363-7.269h2.363l2.363,7.269Z"
                                    transform="translate(-1207.566 -123.519)"></path>
                                <path class="a"
                                    d="M1541.053,162.316a1.358,1.358,0,0,0,.379-1.082,1.454,1.454,0,0,0-.379-1.1,1.687,1.687,0,0,0-1.172-.343,5.349,5.349,0,0,0-.758.054v2.742a4.858,4.858,0,0,0,.721.054A1.672,1.672,0,0,0,1541.053,162.316Zm-3.553-3.5a11.845,11.845,0,0,1,2.219-.216,3.991,3.991,0,0,1,2.453.631,2.349,2.349,0,0,1,.812,1.984,2.388,2.388,0,0,1-.794,1.948,3.656,3.656,0,0,1-2.363.649c-.144,0-.379,0-.7-.018v2.128h-1.605l-.018-7.106Z"
                                    transform="translate(-1254.203 -123.109)"></path>
                                <path class="a"
                                    d="M1575.269,162.063a6.114,6.114,0,0,0,.794.036,2.046,2.046,0,0,0,1.172-.271,1.025,1.025,0,0,0,.379-.884,1.065,1.065,0,0,0-.361-.884,1.881,1.881,0,0,0-1.136-.271,4.675,4.675,0,0,0-.866.072v2.2Zm2.724,3.9-1.858-2.669h-.09c-.252,0-.505,0-.758-.018v2.687H1573.7v-7.106c.343-.072.721-.126,1.118-.18a8.527,8.527,0,0,1,1.172-.072,4.138,4.138,0,0,1,2.381.577,2.036,2.036,0,0,1,.794,1.75,2.131,2.131,0,0,1-.379,1.3,2.364,2.364,0,0,1-1.082.794l2.074,2.922h-1.786Z"
                                    transform="translate(-1283.874 -123.109)"></path>
                                <path class="a"
                                    d="M1612.88,164.091a2.9,2.9,0,0,0,.469-1.822,3.009,3.009,0,0,0-.469-1.876,1.592,1.592,0,0,0-1.335-.6,1.631,1.631,0,0,0-1.335.577,2.91,2.91,0,0,0-.451,1.822,3.019,3.019,0,0,0,.451,1.876,1.631,1.631,0,0,0,1.335.577A1.568,1.568,0,0,0,1612.88,164.091Zm-3.174,1.461a2.831,2.831,0,0,1-1.19-1.245,5.392,5.392,0,0,1,0-4.148,2.843,2.843,0,0,1,1.19-1.245,4.287,4.287,0,0,1,3.68,0,2.66,2.66,0,0,1,1.19,1.245,4.692,4.692,0,0,1,.415,2.056,4.582,4.582,0,0,1-.415,2.056,2.837,2.837,0,0,1-1.19,1.245,3.954,3.954,0,0,1-1.84.415A3.549,3.549,0,0,1,1609.705,165.552Z"
                                    transform="translate(-1312.069 -123.027)"></path>
                                <path class="a"
                                    d="M1653,159.1h1.569l-2.345,7.251h-2.381L1647.5,159.1h1.677l1.894,6.042Z"
                                    transform="translate(-1344.363 -123.519)"></path>
                                <path class="a" d="M1690.3,159.1h1.605v7.251H1690.3Z"
                                    transform="translate(-1379.443 -123.519)"></path>
                                <path class="a"
                                    d="M1711.3,159.1h1.515v7.251h-1.623l-3.174-4.852v4.852H1706.5V159.1h1.623l3.175,4.87Z"
                                    transform="translate(-1392.721 -123.519)"></path>
                                <path class="a"
                                    d="M1748.374,165.147a4.461,4.461,0,0,1,.036-5.609,4.077,4.077,0,0,1,2.9-.938,6.242,6.242,0,0,1,1.569.18V160.1a6.434,6.434,0,0,0-1.443-.162,2.811,2.811,0,0,0-1.317.253,1.62,1.62,0,0,0-.776.776,3.353,3.353,0,0,0-.252,1.389,3.445,3.445,0,0,0,.252,1.407,1.514,1.514,0,0,0,.758.776,2.9,2.9,0,0,0,1.281.234,5.056,5.056,0,0,0,1.5-.234v1.317a5.933,5.933,0,0,1-.776.162,7.009,7.009,0,0,1-.866.072A4.332,4.332,0,0,1,1748.374,165.147Z"
                                    transform="translate(-1426.244 -123.109)"></path>
                                <path class="a" d="M1782.7,159.1h1.605v7.251H1782.7Z"
                                    transform="translate(-1455.177 -123.519)"></path>
                                <path class="a"
                                    d="M1798.343,163.158h1.93l-.974-3.084Zm2.922,3.211-.6-1.93h-2.706l-.6,1.93H1795.8l2.363-7.269h2.345l2.363,7.269Z"
                                    transform="translate(-1465.914 -123.519)"></path>
                                <path class="a"
                                    d="M1856.4,164.562a1.549,1.549,0,0,0,.74-.776,3.945,3.945,0,0,0,0-2.778,1.512,1.512,0,0,0-.758-.776,2.857,2.857,0,0,0-1.262-.253,6.168,6.168,0,0,0-.812.072v4.708c.216.018.487.036.812.036A2.668,2.668,0,0,0,1856.4,164.562Zm-3.7,1.425v-7.052c.343-.072.721-.126,1.136-.18q.622-.054,1.19-.054a4.331,4.331,0,0,1,3.012.92,3.6,3.6,0,0,1,1.01,2.8,4.062,4.062,0,0,1-.487,2.11,2.915,2.915,0,0,1-1.443,1.208,6.633,6.633,0,0,1-2.435.379A17.469,17.469,0,0,1,1852.7,165.987Z"
                                    transform="translate(-1512.551 -123.191)"></path>
                                <path class="a"
                                    d="M1895.387,165.088h3.607v1.281H1893.8V159.1h5.141v1.281h-3.553V162h3.048v1.281h-3.048Z"
                                    transform="translate(-1546.238 -123.519)"></path>
                                <path class="a"
                                    d="M1065.647,233.473a1.829,1.829,0,0,0,1.5-1.984,1.9,1.9,0,0,0-.721-1.677,4.018,4.018,0,0,0-2.363-.523h-2.615v4.347c.541.054,1.208.09,1.984.09A8.722,8.722,0,0,0,1065.647,233.473Zm-4.2-10.732v3.914h2.273a3.819,3.819,0,0,0,2.255-.505,1.783,1.783,0,0,0,.667-1.551,2.157,2.157,0,0,0-.307-1.19,1.885,1.885,0,0,0-.974-.667,6.017,6.017,0,0,0-1.786-.216A13.953,13.953,0,0,0,1061.445,222.742Zm8.171,6.385a3.778,3.778,0,0,1,.794,2.489,3.966,3.966,0,0,1-.794,2.543,4.783,4.783,0,0,1-2.525,1.551,15.905,15.905,0,0,1-4.581.523c-.685,0-1.443-.036-2.255-.09-.757-.054-1.5-.126-2.255-.216V220.541a24.632,24.632,0,0,1,5.14-.541,9.582,9.582,0,0,1,5.177,1.082,3.71,3.71,0,0,1,1.641,3.337,3.564,3.564,0,0,1-.667,2.182,3.37,3.37,0,0,1-1.876,1.263A3.887,3.887,0,0,1,1069.616,229.127Z"
                                    transform="translate(-861.189 -173.434)"></path>
                                <path class="a"
                                    d="M1139.141,235.511c-1.1-1.118-1.641-2.814-1.641-5.122V221.1h3.535v9.632a3.93,3.93,0,0,0,.794,2.724,3.857,3.857,0,0,0,4.87,0,3.961,3.961,0,0,0,.794-2.724V221.1h3.463v9.289c0,2.309-.541,4.022-1.623,5.122-1.082,1.118-2.778,1.677-5.068,1.677C1141.937,237.189,1140.224,236.63,1139.141,235.511Z"
                                    transform="translate(-926.35 -174.336)"></path>
                                <path class="a"
                                    d="M1231.081,234.195h7.882v2.8H1227.6V221.1h11.255v2.8h-7.774v3.571h6.674v2.8h-6.674Z"
                                    transform="translate(-1000.199 -174.336)"></path>
                                <path class="a"
                                    d="M1313.315,221.1h3.319v15.89h-3.553l-6.962-10.642V236.99H1302.8V221.1h3.553l6.962,10.642Z"
                                    transform="translate(-1061.835 -174.336)"></path>
                                <path class="a"
                                    d="M1402.879,232.211a6.369,6.369,0,0,0,1.01-3.986,6.682,6.682,0,0,0-1.01-4.112,3.452,3.452,0,0,0-2.922-1.281,3.489,3.489,0,0,0-2.922,1.263,6.278,6.278,0,0,0-1.01,4,6.779,6.779,0,0,0,1.01,4.13,3.514,3.514,0,0,0,2.94,1.281A3.6,3.6,0,0,0,1402.879,232.211Zm-6.944,3.174a5.986,5.986,0,0,1-2.615-2.724,11.6,11.6,0,0,1,0-9.054,6.075,6.075,0,0,1,2.615-2.724,9.507,9.507,0,0,1,8.044.018,6.075,6.075,0,0,1,2.615,2.724,11.6,11.6,0,0,1,0,9.054,6.169,6.169,0,0,1-2.615,2.724,8.464,8.464,0,0,1-4,.9A8.565,8.565,0,0,1,1395.935,235.385Z"
                                    transform="translate(-1135.274 -173.434)"></path>
                                <path class="a"
                                    d="M1486.925,236.025a12.783,12.783,0,0,1-2.146-.505v-2.832a15.769,15.769,0,0,0,4.473.685,4.172,4.172,0,0,0,2.237-.469,1.53,1.53,0,0,0,.685-1.371,1.558,1.558,0,0,0-.217-.848,1.672,1.672,0,0,0-.7-.6,6.7,6.7,0,0,0-1.389-.487l-1.208-.307a6.363,6.363,0,0,1-3.193-1.641,4.1,4.1,0,0,1-1.064-2.922,4.222,4.222,0,0,1,1.677-3.571,8.171,8.171,0,0,1,4.978-1.263,14.638,14.638,0,0,1,2.02.126,13.994,13.994,0,0,1,1.768.343v2.85a11.132,11.132,0,0,0-1.714-.361,13.363,13.363,0,0,0-1.894-.126,5.232,5.232,0,0,0-2.561.469,1.507,1.507,0,0,0-.776,1.353,1.591,1.591,0,0,0,.18.812,1.5,1.5,0,0,0,.631.559,5.751,5.751,0,0,0,1.227.451l1.208.289a7.162,7.162,0,0,1,3.445,1.7,3.987,3.987,0,0,1,1.1,2.94,4.51,4.51,0,0,1-.758,2.615,4.761,4.761,0,0,1-2.219,1.7,9.04,9.04,0,0,1-3.463.577A12.623,12.623,0,0,1,1486.925,236.025Z"
                                    transform="translate(-1210.681 -173.352)"></path>
                                <path class="a"
                                    d="M1586.927,229.974h4.221l-2.11-6.782Zm6.385,7.016L1592,232.752h-5.934l-1.317,4.239H1581.3l5.177-15.89h5.141l5.177,15.89Z"
                                    transform="translate(-1290.103 -174.336)"></path>
                                <path class="a" d="M1676,221.1h3.517v15.89H1676Z"
                                    transform="translate(-1367.722 -174.336)">
                                </path>
                                <path class="a"
                                    d="M1714.963,227.639a14.774,14.774,0,0,0,1.75.09,4.463,4.463,0,0,0,2.579-.6,2.217,2.217,0,0,0,.83-1.948,2.279,2.279,0,0,0-.794-1.93,3.985,3.985,0,0,0-2.471-.613,11.189,11.189,0,0,0-1.894.162v4.834Zm5.97,8.531-4.094-5.826h-.2q-.758,0-1.677-.054v5.88H1711.5v-15.53c.812-.162,1.623-.307,2.435-.4a24.381,24.381,0,0,1,2.561-.144,8.861,8.861,0,0,1,5.195,1.245,4.413,4.413,0,0,1,1.731,3.842,4.715,4.715,0,0,1-.83,2.85,5.094,5.094,0,0,1-2.381,1.75l4.545,6.385h-3.824Z"
                                    transform="translate(-1396.819 -173.516)"></path>
                                <path class="a"
                                    d="M1797.581,234.195h7.882v2.8H1794.1V221.1h11.255v2.8h-7.774v3.571h6.674v2.8h-6.674Z"
                                    transform="translate(-1464.521 -174.336)"></path>
                                <path class="a"
                                    d="M1867.225,236.025a12.784,12.784,0,0,1-2.146-.505v-2.832a15.769,15.769,0,0,0,4.473.685,4.172,4.172,0,0,0,2.237-.469,1.732,1.732,0,0,0,.469-2.219,1.673,1.673,0,0,0-.7-.6,6.7,6.7,0,0,0-1.389-.487l-1.208-.307a6.363,6.363,0,0,1-3.192-1.641,4.1,4.1,0,0,1-1.064-2.922,4.191,4.191,0,0,1,1.7-3.571,8.208,8.208,0,0,1,4.978-1.263,14.635,14.635,0,0,1,2.02.126,13.991,13.991,0,0,1,1.768.343v2.85a11.132,11.132,0,0,0-1.714-.361,13.363,13.363,0,0,0-1.894-.126,5.233,5.233,0,0,0-2.561.469,1.507,1.507,0,0,0-.776,1.353,1.8,1.8,0,0,0,.18.812,1.557,1.557,0,0,0,.613.559,5.746,5.746,0,0,0,1.227.451l1.208.289a7.091,7.091,0,0,1,3.427,1.7,4.06,4.06,0,0,1,1.1,2.94,4.511,4.511,0,0,1-.758,2.615,4.854,4.854,0,0,1-2.219,1.7,9.04,9.04,0,0,1-3.463.577A12.429,12.429,0,0,1,1867.225,236.025Z"
                                    transform="translate(-1522.387 -173.352)"></path>
                                <path class="a" d="M770.285,80.842V78.1H769.6v2.742Z"
                                    transform="translate(-624.807 -57.128)"></path>
                                <path class="a" d="M779.885,80.842V78.1H779.2v2.742Z"
                                    transform="translate(-632.675 -57.128)"></path>
                                <path class="a"
                                    d="M746.247,74.219h-1.876l.126-1.407v-.018a.255.255,0,0,1,.234-.253h1.515v1.677Zm-1.353,2.561a.555.555,0,0,1,.541.541.546.546,0,0,1-.325.487.579.579,0,0,1-.307.036.527.527,0,0,1-.415-.415.445.445,0,0,1,.036-.307.5.5,0,0,1,.2-.234.34.34,0,0,1,.271-.108Zm4.816-5.88h-3.084a.4.4,0,0,0-.271.108.367.367,0,0,0-.108.271v.541h-1.515a.986.986,0,0,0-.974.974l-.144,1.659-.361.361a1.036,1.036,0,0,0-.253.721v1.8a.4.4,0,0,0,.018.144.789.789,0,0,0,.072.126.291.291,0,0,0,.126.072.424.424,0,0,0,.144.036h.289a1.315,1.315,0,0,0,.541.7,1.331,1.331,0,0,0,.866.18,1.206,1.206,0,0,0,.776-.433,1.265,1.265,0,0,0-.649-2.074,1.3,1.3,0,0,0-.83.072,1.455,1.455,0,0,0-.613.577v-.559h.144a.4.4,0,0,0,.271-.108.367.367,0,0,0,.108-.271.4.4,0,0,0-.108-.271.367.367,0,0,0-.271-.108h-.144a.334.334,0,0,1,.036-.126l.343-.343h2.128V77.3a.37.37,0,0,0,.379.379h.451c.379-.271.776-.505,1.172-.74h-1.263v-.758h2.994a14.847,14.847,0,0,1,2.8-.74h-5.79V71.658h3.9c-.361-.253-.776-.505-1.172-.758Z"
                                    transform="translate(-603.004 -51.227)"></path>
                                <path class="a" d="M789.151,78.1H788.7v2.742h.685V78.262a2.644,2.644,0,0,0-.234-.162Z"
                                    transform="translate(-640.461 -57.128)"></path>
                                <path class="a" d="M798.3,83.2V85h.685v-1.3c-.216-.162-.451-.325-.685-.505Z"
                                    transform="translate(-648.33 -61.309)"></path>
                                <path class="a"
                                    d="M692.066,62.179l1.5,1.1-1.5,1.407Zm0-4.148,1.479,1.19-1.479,1.19Zm0-3.211h1.3l-1.3,1.263V54.82ZM693.8,56.1v2.219l-1.515-1.226,1.515-1.479Zm0,6.295-1.461-1.082,1.461-1.172V62.4Zm0,4.834-1.533-1.515,1.533-1.443Zm.866-10.281,1.226.884-1.226.667V56.948Zm3.5-.451c-.126.108-.253.216-.361.325l-1.064.559-1.208-.866Zm.379,8.423.036.054-.487.451-.036-.054a1.808,1.808,0,0,1-.469-1.01A1.738,1.738,0,0,1,698.541,64.92Zm-6.475,4.888V66.742l1.858,1.822.74-.307V59.473l1.912-1.028a5.92,5.92,0,0,0-.487,1.335,6.423,6.423,0,0,0,.794,4.527l.018-.018a2.436,2.436,0,0,0,.631,1.5l.253.289a.321.321,0,0,0,.469.018l.253-.216.433.487a.322.322,0,0,0,.469.018.651.651,0,0,1,.469-.162.6.6,0,0,1,.451.216.741.741,0,0,1,.162.469.712.712,0,0,1-.216.451.676.676,0,0,1-.216.126.574.574,0,0,1-.253.036.637.637,0,0,1-.253-.054.8.8,0,0,1-.2-.144.322.322,0,0,0-.469-.018.3.3,0,0,0-.036.451,1.256,1.256,0,0,0,.92.415,1.29,1.29,0,0,0,.938-.343,1.33,1.33,0,0,0,.108-1.858,1.2,1.2,0,0,0-.74-.4,1.312,1.312,0,0,0-.83.126l-.253-.271.253-.216a.324.324,0,0,0,.036-.469l-.271-.289a2.406,2.406,0,0,0-1.227-.74l.036-.018a4.925,4.925,0,0,1,1.461-6.728l1.1-.6-.216-.812-5.5.054V54.333l-.433-.433h-2.6l-.433.433V70.349l.523-.379Z"
                                    transform="translate(-560.547 -37.293)"></path>
                                <path class="a"
                                    d="M715.19,182.7a.686.686,0,0,1-.144-.307.724.724,0,0,1-.018-.343,1.147,1.147,0,0,1,.108-.325.948.948,0,0,1,.216-.253.686.686,0,0,1,.307-.144.723.723,0,0,1,.343-.018,1.147,1.147,0,0,1,.325.108.951.951,0,0,1,.253.216.687.687,0,0,1,.144.307.723.723,0,0,1,.018.343.844.844,0,0,1-.343.577.883.883,0,0,1-.631.162h0A.976.976,0,0,1,715.19,182.7Zm.685,1.713a2.257,2.257,0,0,0,2.237-1.948,2.44,2.44,0,0,0-.054-.884,2.192,2.192,0,0,0-.4-.794,2.322,2.322,0,0,0-1.5-.866,2.44,2.44,0,0,0-.884.054,2.192,2.192,0,0,0-.794.4,2.063,2.063,0,0,0-.577.667,2.276,2.276,0,0,0-.289.83,2.432,2.432,0,0,0,.072.956,2.11,2.11,0,0,0,.469.83,2.317,2.317,0,0,0,1.714.758Z"
                                    transform="translate(-578.91 -140.567)"></path>
                                <path class="a"
                                    d="M955.307,120.505c-.072.072-.126.144-.2.216-.18.216-.613.613-.848.83l-.108.108a2.675,2.675,0,0,1-.812.433,2.113,2.113,0,0,0-1.407,1.659,3.23,3.23,0,0,1-.144-1.118,5.1,5.1,0,0,1,.866-1.984c.09-.162.2-.325.289-.487a.48.48,0,0,0,.054-.216.346.346,0,0,0-.072-.216.318.318,0,0,0-.162-.144.31.31,0,0,0-.216-.036,6.008,6.008,0,0,0-2.471.92,3.807,3.807,0,0,1,.866-1.3,1.27,1.27,0,0,0,.144-.18.356.356,0,0,0,.108-.253.536.536,0,0,0-.09-.271.4.4,0,0,0-.234-.144.454.454,0,0,0-.271.036c-.559.289-1.1.577-1.659.848-.469.216-.956.4-1.425.577a6.107,6.107,0,0,0-1.028.523,2.17,2.17,0,0,1,.289-.487,5.354,5.354,0,0,1,.776-.794c.144-.126.271-.253.415-.379a9.812,9.812,0,0,0,1.461-1.822.3.3,0,0,0,.054-.18.615.615,0,0,0-.018-.18.393.393,0,0,0-.09-.144.349.349,0,0,0-.162-.09,3.185,3.185,0,0,0-1.3-.162.982.982,0,0,0-.541.234l-.036.018a.056.056,0,0,1-.036.018c0-.036.018-.054.018-.09a1.467,1.467,0,0,1,.487-.7.141.141,0,0,0,.072-.072.611.611,0,0,0,.108-.216.6.6,0,0,0-.018-.253.564.564,0,0,0-.162-.2.363.363,0,0,0-.234-.072.352.352,0,0,0-.144.018,2.055,2.055,0,0,1-.992.036,6.115,6.115,0,0,0-2.074-.054c.036-.036.072-.054.09-.09a3.656,3.656,0,0,1,1.677-.812,6.434,6.434,0,0,0,1.19-.523c.126-.072.253-.126.379-.2a.541.541,0,0,0,.343-.469.527.527,0,0,0-.343-.487,2.129,2.129,0,0,0-1.136-.18,1.519,1.519,0,0,0,.505-.451c.108-.18.343-.253.7-.361l.036-.018a.406.406,0,0,0,.289-.325.361.361,0,0,0-.036-.234.706.706,0,0,0-.144-.18,1.555,1.555,0,0,1-.18-.126c-.126-.072-.234-.144-.343-.216a3.006,3.006,0,0,1-1.064-1.208,1.5,1.5,0,0,0-.794-.721,4.685,4.685,0,0,0-.758-.271,2.93,2.93,0,0,1,1.569.108,11.638,11.638,0,0,1,1.966.956h0a.558.558,0,0,0,.469.126.335.335,0,0,0,.216-.126.491.491,0,0,0,.108-.216,2.982,2.982,0,0,0-.794-2.435,5.917,5.917,0,0,1,1.677.812.356.356,0,0,0,.271.054.481.481,0,0,0,.253-.126.328.328,0,0,0,.108-.253.387.387,0,0,0-.072-.271,1.523,1.523,0,0,1-.253-.487,2.1,2.1,0,0,0-.108-.289,1.206,1.206,0,0,1-.036-.577c0-.108.018-.2.018-.325a2.75,2.75,0,0,1,.361-1.172c-.2-.162-.4-.343-.649-.541a3.874,3.874,0,0,0-.523,1.7,1.368,1.368,0,0,1-.018.271,2.2,2.2,0,0,0,.018.685,5.171,5.171,0,0,0-2.2-.505.512.512,0,0,0-.234.072.321.321,0,0,0-.144.2.352.352,0,0,0-.018.234.468.468,0,0,0,.126.2,3.7,3.7,0,0,1,1.407,1.966,13.528,13.528,0,0,0-1.641-.758,4.511,4.511,0,0,0-3.571.379.706.706,0,0,0-.18.144.513.513,0,0,0-.072.216.315.315,0,0,0,.072.216.36.36,0,0,0,.18.144,2.213,2.213,0,0,0,.379.09,6.222,6.222,0,0,1,1.75.433.835.835,0,0,1,.4.325,3.638,3.638,0,0,0,1.245,1.461,1.3,1.3,0,0,0-.433.4c-.144.216-.325.289-.685.253a.5.5,0,0,0-.541.18.486.486,0,0,0,.036.6v.018a1.348,1.348,0,0,0,.559.541,1.248,1.248,0,0,0,.758.144,3.587,3.587,0,0,1-.613.234,4.454,4.454,0,0,0-2.02,1.01.786.786,0,0,1-.523.2h-.036c-.415-.036-.577.18-.613.325a.7.7,0,0,0,.234.74.9.9,0,0,0,.613.289,2.71,2.71,0,0,0,.685-.054,5.428,5.428,0,0,1,2.02,0,1.779,1.779,0,0,0,.433.054,3.257,3.257,0,0,0-.144.379c-.108.361-.253.541-.487.613a.514.514,0,0,0-.253.144.481.481,0,0,0-.126.253.544.544,0,0,0,.234.523.91.91,0,0,0,.956.036,4.656,4.656,0,0,0,.776-.469l.18-.126.036-.036a.311.311,0,0,1,.126-.072,3.77,3.77,0,0,1,.451.018,8.322,8.322,0,0,1-1.425,1.551,8.283,8.283,0,0,0-.866.9,2.9,2.9,0,0,0-.631,1.822.64.64,0,0,0,.036.18.4.4,0,0,0,.433.234,1.127,1.127,0,0,0,.4-.18l.072-.054a6.634,6.634,0,0,1,1.335-.758c.487-.18.992-.379,1.5-.613a1.074,1.074,0,0,0,.144-.072,2.345,2.345,0,0,0-.2,1.443.343.343,0,0,0,.09.18.561.561,0,0,0,.162.126.767.767,0,0,0,.2.036.444.444,0,0,0,.2-.072,7.765,7.765,0,0,1,1.876-1.028,4.866,4.866,0,0,0-.776,1.948,5.04,5.04,0,0,0,.92,3.066.29.29,0,0,0,.2.09.31.31,0,0,0,.216-.036.458.458,0,0,0,.18-.144.346.346,0,0,0,.072-.216,9.694,9.694,0,0,1,.126-1.245,1.353,1.353,0,0,1,.92-1.208,2.728,2.728,0,0,0,1.064-.6l.108-.09c.162-.144.325-.307.505-.469l.216-.216C955.487,121.137,955.415,120.812,955.307,120.505Z"
                                    transform="translate(-766.684 -77.619)"></path>
                                <path class="a" d="M813.084,31.3H812.2v.884h.884Z"
                                    transform="translate(-659.723 -18.77)">
                                </path>
                                <path class="a" d="M831.584,31.3H830.7v.884h.884Z"
                                    transform="translate(-674.886 -18.77)">
                                </path>
                                <path class="a"
                                    d="M803.849,11.376l2.687-1.93v1.732a.526.526,0,0,0,.036.162.242.242,0,0,0,.108.126l.018-.018v.036a.352.352,0,0,0,.415,0l.126-.09h0l2.688-1.93V11.2a.527.527,0,0,0,.036.162.243.243,0,0,0,.108.126l.018-.018-.018.036a.352.352,0,0,0,.415,0l.144-.09h0l2.688-1.93v.92h.7V8.815a.526.526,0,0,0-.036-.162.243.243,0,0,0-.108-.126h0V8.508a.378.378,0,0,0-.2-.072.271.271,0,0,0-.2.072l-.126.09h0l-2.706,1.948V8.8a.526.526,0,0,0-.036-.162.242.242,0,0,0-.108-.126h0V8.49a.378.378,0,0,0-.2-.072.271.271,0,0,0-.2.072l-.126.09h0l-2.706,1.948V8.779a.526.526,0,0,0-.036-.162.242.242,0,0,0-.108-.126h0V8.472a.378.378,0,0,0-.2-.072.271.271,0,0,0-.2.072l-3.391,2.435c-.036.036-.09.072-.108.126a.526.526,0,0,0-.036.162V15.11c.234.162.469.325.7.505V11.376Z"
                                    transform="translate(-652.346)"></path>
                                <path class="a"
                                    d="M781.751,51.987l.379.216.451-.758-.379-.216a12.925,12.925,0,0,0-1.208-.631l-.4-.2-.4.794.4.2A9.988,9.988,0,0,1,781.751,51.987Z"
                                    transform="translate(-633.495 -34.425)"></path>
                                <path class="a"
                                    d="M869.694,91.856l.433-.09-.18-.866-.433.09c-.4.072-.83.126-1.281.18l-.433.036.072.884.433-.036C868.81,92,869.261,91.928,869.694,91.856Z"
                                    transform="translate(-705.294 -67.62)"></path>
                                <path class="a"
                                    d="M814.722,73.9l.505-.74-1.046-.7s-.162-.108-.415-.307l-.361-.253-.505.721.361.253c.253.18.433.307.433.307l1.028.721Z"
                                    transform="translate(-660.297 -52.047)"></path>
                                <path class="a"
                                    d="M797.712,61.635l.613.451.361.253.523-.721-.361-.271-.6-.433c-.162-.126-.307-.253-.469-.361l-.361-.253-.523.721.361.253.451.361Z"
                                    transform="translate(-647.183 -42.539)"></path>
                                <path class="a"
                                    d="M850.255,91.745l.072-.884-.433-.036a7.185,7.185,0,0,1-1.245-.216l-.433-.108-.216.866.433.108a9.622,9.622,0,0,0,1.389.216Z"
                                    transform="translate(-689.066 -67.292)"></path>
                                <path class="a"
                                    d="M831.238,84.686l.361-.812-.415-.18c-.4-.18-.776-.361-1.154-.577l-.4-.216-.433.776.4.216c.4.216.812.433,1.226.613Z"
                                    transform="translate(-673.657 -61.063)"></path>
                                <path class="a"
                                    d="M981.921,129.315c.649,3.553,4.094,5.555,4.329,5.682a9.292,9.292,0,0,0,.956.487,5.428,5.428,0,0,1-.649-1.479c-.7-.451-3.156-2.182-3.643-4.87a7.086,7.086,0,0,1,1.786-5.627,4.119,4.119,0,0,0-.09-1.407c-.09.09-.2.18-.289.289C982.318,124.751,981.506,127.078,981.921,129.315Z"
                                    transform="translate(-798.745 -93.192)"></path>
                                <path class="a"
                                    d="M906.2,244.636a.64.64,0,0,0-.18-.036,22.123,22.123,0,0,1-1.353-1.93c-.631-.938-1.317-2-1.912-2.742a1.858,1.858,0,0,0,.577-1.7c0-.018-.18-1.786-.938-1.876a.519.519,0,0,0-.361.09.5.5,0,0,0-.216.289v.018a2.9,2.9,0,0,1-.812,1.371,1.615,1.615,0,0,0-.415-.144,1.951,1.951,0,0,0-.216-2.128h0a.473.473,0,0,0-.433-.253.362.362,0,0,0-.234.072.4.4,0,0,0-.162.18,2.008,2.008,0,0,0-.126.289,1.747,1.747,0,0,1-1.064,1.082,1.95,1.95,0,0,0-1.172,1.515,2.6,2.6,0,0,0-.812-.307,1.4,1.4,0,0,0-.721.018,1.872,1.872,0,0,0-.667.307,1.038,1.038,0,0,0-.469.721,1.351,1.351,0,0,0,.6,1.01c-.4.072-.794.126-1.172.18a4.953,4.953,0,0,1-.74.974,18.442,18.442,0,0,0,3.12-.505.594.594,0,0,0,.234-.126.4.4,0,0,0,.108-.234.4.4,0,0,0-.036-.253.48.48,0,0,0-.18-.2,3.539,3.539,0,0,1-.992-.794.785.785,0,0,1,.343-.18.9.9,0,0,1,.379-.018,2.329,2.329,0,0,1,1.172.721l.018.036a.45.45,0,0,0,.631.216.427.427,0,0,0,.216-.253.453.453,0,0,0-.018-.343c-.451-1.172.289-1.533.541-1.641a3.084,3.084,0,0,0,1.136-.866,1.9,1.9,0,0,1-.721,1.154.4.4,0,0,0-.162.289.41.41,0,0,0,.09.325.456.456,0,0,0,.631.09.874.874,0,0,1,.938-.072.537.537,0,0,0,.541.09,2.571,2.571,0,0,0,1.154-1.208,2.214,2.214,0,0,1,.036,1.082.44.44,0,0,1-.289.343.706.706,0,0,0-.451.415.514.514,0,0,0,0,.234.609.609,0,0,0,.108.216c.6.685,1.425,1.948,2.164,3.048a9.293,9.293,0,0,0,1.659,2.219,1.314,1.314,0,0,0,.433.126l.2.036a2.145,2.145,0,0,1-.271,1.263l-.054.018a.373.373,0,0,0-.253.18,8.055,8.055,0,0,1-.776.92c-.289.253-.649.108-1.208-.162a3.541,3.541,0,0,0-.631-.253,7.637,7.637,0,0,0-3.391-.144,7.8,7.8,0,0,0-1.876.667c-.74.379-1.154,2.056-1.3,2.76a.37.37,0,0,0,0,.2.563.563,0,0,0,.09.18.393.393,0,0,0,.162.126.357.357,0,0,0,.2.036.462.462,0,0,0,.451-.361,4.781,4.781,0,0,1,.812-2.128,8,8,0,0,1,1.659-.6,6.739,6.739,0,0,1,2.994.126,2.149,2.149,0,0,1,.451.2,1.888,1.888,0,0,0,2.182.036,8.528,8.528,0,0,0,.83-.956l.108-.018a.293.293,0,0,0,.162-.09.486.486,0,0,0,.126-.144c.09-.162.848-1.569.253-2.453C906.782,244.763,906.529,244.709,906.2,244.636Z"
                                    transform="translate(-726.113 -186.221)"></path>
                                <path class="a"
                                    d="M961.067,235.895a3,3,0,0,0-2-.866,3.181,3.181,0,0,0-2.615-1.317,6.738,6.738,0,0,0-1.7-1.154,3.945,3.945,0,0,1,2.706-1.046,3.627,3.627,0,0,1,3.77,3.427A4.237,4.237,0,0,1,961.067,235.895ZM957.46,230.7a4.676,4.676,0,0,0-3.553,1.569h-.036v.054c-.09.108-.18.234-.271.361l.162.4a4.967,4.967,0,0,1,2.273,1.353l.162.18.234-.072a1.658,1.658,0,0,1,.884.126l-1.245,2.273c-.162,0-.325-.018-.487-.018H955.3c-.234,0-.469,0-.685.018-.271-.018-.541-.018-.812-.018l.848,1.1c.559,0,1.118.018,1.677.036a16.786,16.786,0,0,1,4.094.794c.216-.343.451-.631.667-.938a18.172,18.172,0,0,0-4.112-.92l1.064-1.93a1.14,1.14,0,0,1,.433.523l.108.4.4-.108a2.188,2.188,0,0,1,1.768.812v.018l.036.018c.108.108.2.216.307.343l.343.072a4.053,4.053,0,0,0,.649-2.164A4.505,4.505,0,0,0,957.46,230.7Z"
                                    transform="translate(-775.619 -182.204)"></path>
                                <path class="a"
                                    d="M882.057,279.241a.821.821,0,0,1,.144-.541.29.29,0,0,0,.054-.162.268.268,0,0,0-.036-.162,1.416,1.416,0,0,0-.758-.758,1.843,1.843,0,0,0-1.245-.054,1.221,1.221,0,0,0-.433.216,1.42,1.42,0,0,0-.307.361,2.888,2.888,0,0,0-.054,2.092h-.2a2.676,2.676,0,0,0-.036-.758.492.492,0,0,0-.108-.216.512.512,0,0,0-.2-.144,1.448,1.448,0,0,0-.83-.036,1.5,1.5,0,0,0-.7.433c-.271.325.036.74.126.884.036.054.072.126.126.216a1.266,1.266,0,0,0,.108.162c-.108.072-.2.126-.289.2a3.766,3.766,0,0,1-.289-1.732v-.018a3.993,3.993,0,0,1,.108-.577l.018-.072c0-.018,0-.018.018-.036a3.027,3.027,0,0,1,.992-1.569,3.267,3.267,0,0,1,1.605-.631c.938-.126,2.2,1.154,2.6,1.641a.332.332,0,0,0,.325.144.985.985,0,0,1,.794.18h-.018a2.107,2.107,0,0,0-.848.2A1.4,1.4,0,0,0,882.057,279.241Zm-4.094.649a.628.628,0,0,1,.271-.126.756.756,0,0,1,.289-.018,2.084,2.084,0,0,1-.036.631c-.054.018-.126.054-.18.072A1.939,1.939,0,0,1,877.962,279.89Zm1.605,3.445c-.108.036-.343-.018-.667-.253a4.514,4.514,0,0,1-1.19-1.425,2.1,2.1,0,0,1,1.912-.667c.054.325.126.812.126.92v.018A2.1,2.1,0,0,1,879.568,283.335Zm3.463-4.166a1.087,1.087,0,0,1,.794-.09.776.776,0,0,0,.289,0,.757.757,0,0,0,.253-.162.516.516,0,0,0,.072-.523,1.534,1.534,0,0,0-.541-.685,1.622,1.622,0,0,0-.992-.271,5.173,5.173,0,0,0-2.453-1.714,2.162,2.162,0,0,0-.685-.054,3.451,3.451,0,0,0-1.984.794,3.673,3.673,0,0,0-1.208,1.894,3.368,3.368,0,0,0-.162.848,4.442,4.442,0,0,0,.4,2.237l.18.379a5.758,5.758,0,0,0,1.5,1.84,1.7,1.7,0,0,0,1.028.415.782.782,0,0,0,.343-.072c.541-.216.758-.992.631-2.146a11.131,11.131,0,0,0-.271-1.515,6.156,6.156,0,0,1-.18-.83c0-.018-.144-1.1.4-1.281a.937.937,0,0,1,1.064.271,2.786,2.786,0,0,0-.126.415,1.55,1.55,0,0,0,.036.7,1.625,1.625,0,0,0,.361.613.679.679,0,0,0,.271.162.581.581,0,0,0,.307-.018.5.5,0,0,0,.234-.2.608.608,0,0,0,.09-.307c0-.361.108-.6.361-.7Z"
                                    transform="translate(-712.336 -219.057)"></path>
                                <path class="a"
                                    d="M887.967,310.354a.291.291,0,0,0-.162-.054.677.677,0,0,0-.18.018.641.641,0,0,0-.162.072.242.242,0,0,0-.108.126.291.291,0,0,0-.054.162.675.675,0,0,0,.018.18.354.354,0,0,0,.162.234.486.486,0,0,0,.271.09.428.428,0,0,0,.216-.054.354.354,0,0,0,.162-.162.555.555,0,0,0,.054-.343A.522.522,0,0,0,887.967,310.354Z"
                                    transform="translate(-721.277 -247.447)"></path>
                                <path class="a" d="M839.8,53.8h-2.4v.884h2.4Z" transform="translate(-680.378 -37.211)">
                                </path>
                                <path class="a" d="M837.4,62.9h2.4V62h-2.4Z" transform="translate(-680.378 -43.932)">
                                </path>
                                <path class="a"
                                    d="M866.284,31.7h-.92a.066.066,0,0,0-.054.018.039.039,0,0,0-.036.036c-.018.018-.018.018-.018.036v.848h-.83a.123.123,0,0,0-.126.126v.92c0,.036.018.054.036.09a.138.138,0,0,0,.09.036h.812V34.6a.123.123,0,0,0,.126.126h.92a.123.123,0,0,0,.126-.126V33.81h.812c.036,0,.054-.018.09-.036a.138.138,0,0,0,.036-.09V32.71a.063.063,0,0,0-.018-.036c-.018-.018-.018-.018-.036-.018h-.884v-.848a.063.063,0,0,0-.018-.036l-.036-.036c-.036-.018-.054-.018-.072-.036Z"
                                    transform="translate(-702.426 -19.097)"></path>
                                <path class="a"
                                    d="M865.884,64.381V62.505h.505V62H862.8v.505h.523V64.85c.162-.018.343-.018.505-.036V62.505h1.533v2.02c.18-.036.343-.09.523-.144Z"
                                    transform="translate(-701.196 -43.932)"></path>
                                <path class="a"
                                    d="M834.165,22.179v3.95H830.2a.34.34,0,0,0-.144.036.472.472,0,0,0-.216.216.424.424,0,0,0-.036.144V29.7l.758.487v-3.3h3.607V31.72a5.351,5.351,0,0,0,.776.126V22.558h5.231v8.1l.758-.541V26.886h3.589v1.533l.162.108a.849.849,0,0,1,.271-.234,1.088,1.088,0,0,1,.343-.108V26.508a.37.37,0,0,0-.379-.379h-3.986v-3.95a.37.37,0,0,0-.379-.379h-6.006a.37.37,0,0,0-.379.379Z"
                                    transform="translate(-674.148 -10.983)"></path>
                                <path class="a"
                                    d="M870.454,220.413l-.054,2.85a1.926,1.926,0,0,1,.451.054,1.542,1.542,0,0,1,.433.162l1.3-2.525A2.122,2.122,0,0,0,870.454,220.413Z"
                                    transform="translate(-707.426 -173.703)"></path>
                                <path class="a"
                                    d="M854.26,224.8l-.866-2.706a2.161,2.161,0,0,0-1.894,1.118l1.984,2.056A1.911,1.911,0,0,1,854.26,224.8Z"
                                    transform="translate(-691.934 -175.152)"></path>
                                <path class="a"
                                    d="M842.813,237.528l2.868.054a2.2,2.2,0,0,1,.054-.469,1.657,1.657,0,0,1,.162-.415l-2.543-1.3a2.144,2.144,0,0,0-.541,2.128Z"
                                    transform="translate(-684.744 -186.057)"></path>
                                <path class="a"
                                    d="M845.615,253.842l2.074-1.984a1.973,1.973,0,0,1-.469-.758l-2.724.866A2.14,2.14,0,0,0,845.615,253.842Z"
                                    transform="translate(-686.193 -198.925)"></path>
                                <path class="a"
                                    d="M857.9,260.207c0,.018.018.018,0,0l.018.018.036.018h0l.036.036a.018.018,0,0,1,.018.018c.018.018.036.036.054.036l.018.018.054.054h0l.072.054a.018.018,0,0,1,.018.018c.018.018.054.036.072.054l.018.018c.036.018.054.036.09.054h0l.108.054a.018.018,0,0,1,.018.018.256.256,0,0,0,.108.036l.018.018.126.036h0c.036.018.09.018.126.036h.036c.036.018.09.018.126.036h.036c.054,0,.09.018.144.018h.325a.4.4,0,0,0,.144-.018h.036l.108-.018h.036c.054-.018.09-.018.144-.036v-.072l.054-2.8a1.817,1.817,0,0,1-.451-.054,1.655,1.655,0,0,1-.415-.162l-1.1,2.128-.234.379Z"
                                    transform="translate(-697.18 -204.335)"></path>
                                <path class="a"
                                    d="M876.278,257.756l-2-2.056a1.872,1.872,0,0,1-.776.451l.884,2.724a2.146,2.146,0,0,0,1.894-1.118Z"
                                    transform="translate(-709.966 -202.695)"></path>
                                <path class="a"
                                    d="M883.1,247.954l-2.868-.054a2.068,2.068,0,0,1-.234.866l2.561,1.317A2.144,2.144,0,0,0,883.1,247.954Z"
                                    transform="translate(-715.294 -196.302)"></path>
                                <path class="a"
                                    d="M881.392,230.976a2.14,2.14,0,0,0-1.118-1.876l-2.074,1.984a2.132,2.132,0,0,1,.469.776Z"
                                    transform="translate(-713.819 -180.893)"></path>
                                <path class="a"
                                    d="M865,241.125a1.365,1.365,0,0,0-.433-1.01,1.43,1.43,0,0,0-1.028-.415,1.461,1.461,0,0,0-1.028.415,1.419,1.419,0,0,0-.415,1.01,1.539,1.539,0,0,0,.108.559,1.621,1.621,0,0,0,.307.469,1.411,1.411,0,0,0,.469.307,1.5,1.5,0,0,0,1.118,0,1.368,1.368,0,0,0,.776-.776A1.208,1.208,0,0,0,865,241.125Z"
                                    transform="translate(-700.623 -189.581)"></path>
                                <path class="a" d="M871.784,159.6H870.9v.884h.884Z"
                                    transform="translate(-707.835 -123.929)"></path>
                                <path class="a" d="M871.784,167.9H870.9v.884h.884Z"
                                    transform="translate(-707.835 -130.732)"></path>
                                <path class="a" d="M924.684,159.6H923.8v.884h.884Z"
                                    transform="translate(-751.194 -123.929)"></path>
                                <path class="a" d="M924.684,167.9H923.8v.884h.884Z"
                                    transform="translate(-751.194 -130.732)"></path>
                                <path class="a" d="M935.584,87.9H934.7v.884h.884Z"
                                    transform="translate(-760.128 -65.161)">
                                </path>
                                <path class="a" d="M905,73.384h.9V72.5H905Z" transform="translate(-735.785 -52.538)">
                                </path>
                                <path class="a"
                                    d="M700.353,220.525a15.227,15.227,0,0,1,7.612,4.094l1.01-.361c-1.7-2.128-5.1-3.968-8.405-4.708a14.966,14.966,0,0,0-9.469.794v1.118A13.11,13.11,0,0,1,700.353,220.525Z"
                                    transform="translate(-560.465 -172.714)"></path>
                                <path class="a"
                                    d="M705.106,68.975a15.761,15.761,0,0,1,4.852-1.479c.415-.054.812-.09,1.227-.126h.108c.379-.018,1.1-.018,1.569-.036h.974a22.793,22.793,0,0,0-6.746,2.85,5.024,5.024,0,0,0-.758.631,15.324,15.324,0,0,0-2.471-1.136A13.868,13.868,0,0,1,705.106,68.975Zm3.283-5.1A1.45,1.45,0,0,1,707,62.807h.794a1.459,1.459,0,0,1,1.371.974v.09Zm.6-2.9a.844.844,0,0,1-.18.09.369.369,0,0,1-.2,0h-.018a.46.46,0,0,1-.307-.253.933.933,0,0,1-.036-.2.363.363,0,0,1,.054-.2l.379-.667a2.422,2.422,0,0,0,.487.126v.758a.436.436,0,0,1-.18.343Zm-1.136-3.589a1.685,1.685,0,0,1,.523-1.172,1.7,1.7,0,0,1,2.381,0,1.685,1.685,0,0,1,.523,1.172,1.709,1.709,0,0,1-2.922,1.208,1.874,1.874,0,0,1-.505-1.208Zm-.271,2.6a.549.549,0,0,1-.144.144.378.378,0,0,1-.2.072.676.676,0,0,1-.2-.018.374.374,0,0,1-.18-.108l-.018-.018a.375.375,0,0,1-.108-.18.39.39,0,0,1-.018-.2.645.645,0,0,1,.072-.2.549.549,0,0,1,.144-.144l.667-.379a1.628,1.628,0,0,0,.361.343Zm-1.028-1.335a.364.364,0,0,1-.2.054.357.357,0,0,1-.2-.036.367.367,0,0,1-.162-.108.344.344,0,0,1-.09-.18v-.018a.44.44,0,0,1,0-.216.344.344,0,0,1,.09-.18.288.288,0,0,1,.162-.126.363.363,0,0,1,.2-.054h.758a2.422,2.422,0,0,0,.126.487Zm-.685-2.237h0a.517.517,0,0,1,.108-.2.325.325,0,0,1,.162-.108.93.93,0,0,1,.2-.036.411.411,0,0,1,.2.054l.667.379a2.149,2.149,0,0,0-.126.487h-.758a.363.363,0,0,1-.2-.054.561.561,0,0,1-.162-.126.841.841,0,0,1-.09-.18.432.432,0,0,1,0-.216Zm.992-1.713h0a1.1,1.1,0,0,1,.18-.126.39.39,0,0,1,.2-.018.5.5,0,0,1,.343.216l.379.667a2.275,2.275,0,0,0-.361.361l-.667-.379a.55.55,0,0,1-.144-.144.379.379,0,0,1-.072-.2.358.358,0,0,1,.018-.2A.648.648,0,0,1,706.856,54.69Zm1.407-.721a.46.46,0,0,1,.307-.253h.018a.369.369,0,0,1,.2,0,.344.344,0,0,1,.18.09.288.288,0,0,1,.126.162.364.364,0,0,1,.054.2v.758a2.422,2.422,0,0,0-.487.126l-.379-.667a.364.364,0,0,1-.054-.2A.776.776,0,0,1,708.263,53.969Zm1.714.162a.364.364,0,0,1,.054-.2.99.99,0,0,1,.126-.162.842.842,0,0,1,.18-.09.44.44,0,0,1,.216,0h.018a.564.564,0,0,1,.18.09.99.99,0,0,1,.126.162.768.768,0,0,1,.036.2.363.363,0,0,1-.054.2l-.379.667a2.422,2.422,0,0,0-.487-.126v-.74Zm1.569.649a.549.549,0,0,1,.144-.144.646.646,0,0,1,.2-.072.358.358,0,0,1,.2.018.374.374,0,0,1,.18.108l.018.018a.375.375,0,0,1,.108.18.39.39,0,0,1,.018.2.444.444,0,0,1-.072.2.549.549,0,0,1-.144.144l-.667.379a2.274,2.274,0,0,0-.361-.361l.379-.667Zm1.046,1.335h0a1.371,1.371,0,0,1,.2-.072.357.357,0,0,1,.2.036.43.43,0,0,1,.271.289v.018a.88.88,0,0,1,.018.216.486.486,0,0,1-.09.2.288.288,0,0,1-.162.126.364.364,0,0,1-.2.054h-.758a2.426,2.426,0,0,0-.126-.487l.649-.379Zm.667,2.237v.018a.565.565,0,0,1-.09.18.426.426,0,0,1-.162.108.648.648,0,0,1-.2.036.411.411,0,0,1-.2-.054l-.667-.379a2.146,2.146,0,0,0,.126-.487h.758a.471.471,0,0,1,.361.18.841.841,0,0,1,.09.18A.406.406,0,0,1,713.259,58.352Zm-.974,1.713h0a.409.409,0,0,1-.2.126.39.39,0,0,1-.2.018.878.878,0,0,1-.2-.072.549.549,0,0,1-.144-.144l-.379-.667a2.273,2.273,0,0,0,.361-.361l.667.379a.549.549,0,0,1,.144.144.647.647,0,0,1,.072.2.677.677,0,0,1-.018.2,1.6,1.6,0,0,1-.108.18Zm-1.425.721a.288.288,0,0,1-.126.162.344.344,0,0,1-.18.09h-.018a.44.44,0,0,1-.216,0,.344.344,0,0,1-.18-.09.288.288,0,0,1-.126-.162.364.364,0,0,1-.054-.2v-.758a2.423,2.423,0,0,0,.487-.126l.379.667a.364.364,0,0,1,.054.2A.222.222,0,0,1,710.86,60.786Zm.505,2h.794a1.4,1.4,0,0,1-.505.776,1.421,1.421,0,0,1-.884.307h-.74v-.18a1.425,1.425,0,0,1,.523-.649A1.531,1.531,0,0,1,711.365,62.789Zm2.886,2.922a6.8,6.8,0,0,0,.577-1.064,5.685,5.685,0,0,0,.343-3.5,22.33,22.33,0,0,1,2.9-.036,5.6,5.6,0,0,0,.036,3.084,5.745,5.745,0,0,0,.415,1.046l.09.18a9.188,9.188,0,0,0,.7,1.082c-.234.126-.487.271-.721.415-.018.018-.054.036-.072.054a19.358,19.358,0,0,0-2.507-.541c-.451-.072-.9-.108-1.353-.144-.271-.018-.541-.018-.812-.036C714,66.053,714.125,65.891,714.251,65.71Zm6.547,3.337a12.9,12.9,0,0,1,1.371.794,24.7,24.7,0,0,0-11.075,2.814,7.541,7.541,0,0,0-.685.451s-.253.2-.415.307c-.289-.253-.6-.505-.9-.758l.054-.036a7.22,7.22,0,0,1,.776-.541C712.267,70.653,717.75,68.921,720.8,69.047Zm-12.517,3.012c-.343-.253-.7-.487-1.064-.7a4.456,4.456,0,0,1,.7-.523,24.727,24.727,0,0,1,9.145-3.1c.108.018.216.054.325.072.451.108.9.234,1.335.379l.108.036A24.7,24.7,0,0,0,709.2,71.41a6.748,6.748,0,0,0-.649.469A1.011,1.011,0,0,0,708.281,72.059ZM731.62,49.225l3.048-2.2,1.317.92a.54.54,0,0,0,.18.072.3.3,0,0,0,.18-.036.487.487,0,0,0,.144-.126.348.348,0,0,0,.054-.18v-.721h.343v1.5a.377.377,0,0,0,.144.289l.667.487V52a37.383,37.383,0,0,1-4.185-.776c-.6-.144-1.245-.289-1.912-.415V49.225ZM724.153,60.8l.036,3.914-.162.036c-.649.144-1.245.307-1.75.469l-.036-4.4Zm3.752-2.76,2.868,1.8.036,4.635c-.505-.054-.992-.09-1.5-.108V62.951a1.353,1.353,0,0,0-2.706,0l.018,1.425h-.144c-.451.036-.9.09-1.353.144l-.036-4.671Zm2.363-2.687v.505l-1.93.018v-.505Zm-2.02,9.018c-.361-.018-.739-.018-1.1,0l-.018-1.407a.841.841,0,0,1,.054-.307,1.175,1.175,0,0,1,.18-.271.714.714,0,0,1,.271-.18,1.528,1.528,0,0,1,.307-.072.843.843,0,0,1,.307.054.788.788,0,0,1,.271.18.812.812,0,0,1,.18.253,1.525,1.525,0,0,1,.072.307l.018,1.407A2.916,2.916,0,0,1,728.247,64.376ZM733.6,60.75l.036,4.293a17.181,17.181,0,0,0-1.912-.415l-.036-3.86,1.912-.018ZM700.85,71.915a17.163,17.163,0,0,1,8.351,5l.992-.343-.018-.036a17.954,17.954,0,0,0-8.351-5.393,5.689,5.689,0,0,0,.577-.361c.144-.126.289-.253.451-.379a17.968,17.968,0,0,1,8.279,5.682.063.063,0,0,1,.018.036l.974-.343c-.054-.09-.108-.162-.162-.253a10.379,10.379,0,0,0-1.227-1.443c.343-.234.685-.469,1.046-.7,2.363-1.371,8.658-3.265,11.85-2.435.09.054.162.108.162.108a7.084,7.084,0,0,0,3.5,1.172.878.878,0,0,1,.216.018h.613a6.439,6.439,0,0,0,1.912-.433.641.641,0,0,0,.162-.072,2.946,2.946,0,0,1,1.822-.108,2.367,2.367,0,0,1,.776.433.317.317,0,0,1,.09.072l.325.253a7.507,7.507,0,0,0,3.589,1.732,8.118,8.118,0,0,0,2.561-.18l.433-.108a9.766,9.766,0,0,1,1.389-.487,6.241,6.241,0,0,1,2.579.054,3.472,3.472,0,0,1-.4-1.172c-.613-.018-.036,0-.7-.036a5.694,5.694,0,0,0-2.868.469l-.469.126a6.986,6.986,0,0,1-1.786.271h-.126a7.2,7.2,0,0,1-3.12-1.172,1.5,1.5,0,0,0-.216-.144c-.325-.234-.631-.523-.974-.74a3.539,3.539,0,0,0-.577-.307,3.711,3.711,0,0,0-2.814.072,5.322,5.322,0,0,1-2.309.361,7.83,7.83,0,0,1-3.427-1.353,14.332,14.332,0,0,0-4.022-2.363h-.018a15.873,15.873,0,0,1,4.672-1.659,14.551,14.551,0,0,1,1.984-.253c.451-.036,2.056-.036,2.056-.036.451,0,.9,0,1.353.036a15.449,15.449,0,0,1,7.954,2.742,2.824,2.824,0,0,1,.631-1.028,15.036,15.036,0,0,0-3.968-1.93l-.036-5.032a.642.642,0,0,0-.036-.18.393.393,0,0,0-.09-.144,1,1,0,0,0-.144-.108.533.533,0,0,0-.18-.036l-2.381.018v-.253a.48.48,0,0,0-.054-.216.354.354,0,0,0-.162-.162L728.41,57.2v-.469l2.381-.018a.641.641,0,0,0,.18-.036.281.281,0,0,0,.144-.108.392.392,0,0,0,.09-.144.534.534,0,0,0,.036-.18V54.834a.64.64,0,0,0-.036-.18.28.28,0,0,0-.108-.144.393.393,0,0,0-.144-.09.533.533,0,0,0-.18-.036h0l-2.832.018a.519.519,0,0,0-.325.126.435.435,0,0,0-.126.325l.018,2.345-3.156,2.056a.354.354,0,0,0-.162.162.48.48,0,0,0-.054.216v.253l-2.381.018a.641.641,0,0,0-.18.036.28.28,0,0,0-.144.108,1,1,0,0,0-.108.144.533.533,0,0,0-.036.18l.036,5.177c-.289.108-.577.234-.866.361-.054.036-.126.054-.18.09a7.138,7.138,0,0,1-.848-1.317,5.592,5.592,0,0,1-.379-1.046,4.88,4.88,0,0,1-.126-1.136,4.968,4.968,0,0,1,.18-1.154l.379-1.226c-.487-.054-.956-.09-1.443-.108v-.577a3.943,3.943,0,0,1,.054-.649,2.472,2.472,0,0,1,.144-.631c.018-.054.036-.126.054-.18.018-.018.018-.054.036-.072l.036-.072c.072-.144.162-.271.234-.4l.072-.108a.338.338,0,0,0,.054-.072c.036-.054.09-.108.144-.18a2.46,2.46,0,0,1,.307-.307,1.029,1.029,0,0,1,.144-.126l.054-.054a2.968,2.968,0,0,1,.4-.253.64.64,0,0,1,.162-.072c.036-.018.054-.036.09-.054a5.042,5.042,0,0,1,.74-.234c.036,0,.108-.018.144-.018h.018a4.078,4.078,0,0,1,.938,0c.018,0,.054.018.072,0h.036a6.153,6.153,0,0,1,.992.253c.018.018.054.018.072.036l-.054-.018.054.018c.072.036.144.072.234.108a2.214,2.214,0,0,0,.469.216,5.91,5.91,0,0,0,2.688-.2c.162-.036.325-.054.487-.09v-.9c-.126.018-.253.054-.379.072-.361.072-.7.126-1.064.216a2.032,2.032,0,0,1-.325.054.229.229,0,0,1-.108.018h-.054l-.216.018a3.475,3.475,0,0,1-.433.018h-.108c-.054-.018-.108-.018-.162-.036-.036-.018-.09-.018-.126-.036h0l-.18-.108a6.374,6.374,0,0,0-.613-.289A5.5,5.5,0,0,0,721.52,55a3.947,3.947,0,0,0-1.641.289,4.272,4.272,0,0,0-1.407.9,4,4,0,0,0-1.118,1.894,8.95,8.95,0,0,0-.162,1.84c-.379,0-.812.018-1.227.036a9.871,9.871,0,0,1,.451-2.814,2.844,2.844,0,0,1,.289-.631,4.5,4.5,0,0,1,.343-.541.261.261,0,0,1,.036-.054,4.012,4.012,0,0,1,.469-.487c.054-.036.09-.072.144-.108.018-.018.054-.036.072-.054l.018-.018c.09-.072.2-.126.289-.2a6.712,6.712,0,0,1,.613-.343.541.541,0,0,0,.144-.072.463.463,0,0,0,.09-.036c.108-.036.234-.09.343-.126a13.081,13.081,0,0,1,1.407-.307,3.147,3.147,0,0,0,1.461-.6c.379-.307.649-.721,1.01-1.028.09-.072.162-.126.271-.2a2.124,2.124,0,0,1,.343-.2,2.192,2.192,0,0,1,.361-.162c.018-.018.036-.018.054-.036h.018l.018-.018.2-.072c.433-.162.884-.289,1.353-.415l.144-.036a10.47,10.47,0,0,1,2.489-.2,25.808,25.808,0,0,1,5,.83,28.775,28.775,0,0,0,4.509.812,3.475,3.475,0,0,0,.433.018,6.949,6.949,0,0,0,4.437-1.623c-.234-.2-.469-.379-.7-.577A6.207,6.207,0,0,1,738.42,52V49.045a.526.526,0,0,0-.036-.162.242.242,0,0,0-.108-.126l-.667-.487V46.592a.37.37,0,0,0-.361-.361H736.2a.37.37,0,0,0-.361.361v.4l-.974-.685a.378.378,0,0,0-.2-.072.271.271,0,0,0-.2.072l-1.317.956v-.92a.528.528,0,0,0-.036-.162.243.243,0,0,0-.108-.126l-.667-.487V43.886a.37.37,0,0,0-.361-.361h-1.046a.356.356,0,0,0-.253.108.327.327,0,0,0-.108.253v.379L729.6,43.6a.309.309,0,0,0-.4,0l-3.409,2.489a.4.4,0,0,0-.144.234,10.3,10.3,0,0,1-6.493.577,18.528,18.528,0,0,1-6.2-3.517l-.072-.054a28.715,28.715,0,0,0-5.1-3.427,3.53,3.53,0,0,1-.758.613H707a27.011,27.011,0,0,1,5.14,3.337,21.9,21.9,0,0,0,6.583,3.86,11.031,11.031,0,0,0,6.908-.433v2.381l.7-.253V46.537l3.048-2.2,1.317.92a.372.372,0,0,0,.361.036.487.487,0,0,0,.144-.126.348.348,0,0,0,.054-.18v-.721h.343v1.5a.376.376,0,0,0,.144.289l.685.487v1.245l-1.371.992a.781.781,0,0,0-.108.126.526.526,0,0,0-.036.162V50.7a13.861,13.861,0,0,0-5.1-.09.352.352,0,0,0-.126.018,14.7,14.7,0,0,0-1.732.523,10.9,10.9,0,0,1-7.575-.649c-2.489-1.136-4.563-3.012-6.764-4.6-2.471-1.768-5.158-3.391-8.261-3.5-2.146-.072-4.293.072-6.421.072v.866c2-.018,3.986-.108,5.988-.09a9.542,9.542,0,0,1,3.409.577,24.388,24.388,0,0,1,4.924,2.868c1.75,1.263,3.409,2.705,5.285,3.806a22,22,0,0,0-4.076.108,14.768,14.768,0,0,0-5.231,1.569,10.623,10.623,0,0,0-2.363,1.732l.631.613c.144-.144.289-.271.451-.415a1.91,1.91,0,0,1,.216-.18l.126-.108a.063.063,0,0,1,.036-.018l.054-.054a11.447,11.447,0,0,1,2.182-1.263c.036-.018.09-.036.126-.054.325-.126.649-.253.974-.361a17.369,17.369,0,0,1,5.519-.758c1.136,0,2.255.09,3.373.2h.072a12,12,0,0,0,5.447.83c-.108.126-.216.253-.343.379a1.213,1.213,0,0,1-.271.253l-.036.018a1.65,1.65,0,0,1-.234.144.066.066,0,0,1-.054.018l-.054.018-.162.054a2.883,2.883,0,0,1-.379.09,13.935,13.935,0,0,0-1.461.289,6.324,6.324,0,0,0-1.389.6,4.829,4.829,0,0,0-2.038,2.363,10.2,10.2,0,0,0-.613,3.445l-.343.018c-.343.036-.685.072-1.028.126,0,0,.343,1.172.361,1.226a5.327,5.327,0,0,1,.108,1.064,4.594,4.594,0,0,1-.559,2.092,6.629,6.629,0,0,1-1.263,1.659h-.415c-.271,0-.541.018-.812.036l-.505.036-.559.054V64.448h1.046a1.7,1.7,0,0,0,.866-.234c.126-.108.307-.289.307-.289a2.087,2.087,0,0,0,.649-1.515.37.37,0,0,0-.361-.361h-1.172a2.113,2.113,0,0,0-1.335.469v-.74a1.356,1.356,0,0,0,.992-.072,1.3,1.3,0,0,0,.4-.307,1.083,1.083,0,0,0,.234-.451,1.243,1.243,0,0,0,.631-.018,1.046,1.046,0,0,0,.541-.325,1.122,1.122,0,0,0,.325-.541,1.249,1.249,0,0,0,.018-.631,1.28,1.28,0,0,0,.848-.9,1.5,1.5,0,0,0,.018-.631,1.309,1.309,0,0,0-.307-.559,1.214,1.214,0,0,0,.289-1.19,1.28,1.28,0,0,0-.848-.9,1.243,1.243,0,0,0-.018-.631,1.3,1.3,0,0,0-.866-.866,1.249,1.249,0,0,0-.631-.018,1.28,1.28,0,0,0-.9-.848,1.577,1.577,0,0,0-.649-.018,1.309,1.309,0,0,0-.559.307,1.424,1.424,0,0,0-.559-.307,1.138,1.138,0,0,0-.649.018,1.309,1.309,0,0,0-.559.307,1.046,1.046,0,0,0-.325.541,1.243,1.243,0,0,0-.631.018,1.176,1.176,0,0,0-.559.325,1.122,1.122,0,0,0-.325.541,1.249,1.249,0,0,0-.018.631,1.28,1.28,0,0,0-.848.9,1.247,1.247,0,0,0,0,.631,1.31,1.31,0,0,0,.307.559,1.31,1.31,0,0,0-.307.559,1.247,1.247,0,0,0,0,.631,1.28,1.28,0,0,0,.848.9,1.243,1.243,0,0,0,.018.631,1.3,1.3,0,0,0,.866.866,1.254,1.254,0,0,0,.631.018,1.694,1.694,0,0,0,.253.469,1.187,1.187,0,0,0,.415.307,1.6,1.6,0,0,0,.505.126,1.2,1.2,0,0,0,.505-.09v.794a2.091,2.091,0,0,0-1.371-.487h-1.19a.37.37,0,0,0-.361.361,2.143,2.143,0,0,0,.631,1.515,1.486,1.486,0,0,0,.812.505,13.061,13.061,0,0,0,1.461.036v2a16.348,16.348,0,0,0-5.014,1.732.262.262,0,0,1,.018-.108v-.343l.541-.2c.487-.18.956-.4,1.118-.469a.916.916,0,0,0,.325-.162.85.85,0,0,0,.234-.271v-.018a1.043,1.043,0,0,0,.09-.7v-.036l-.054-.216v-.018c-.018-.036-.018-.09-.036-.126a2.888,2.888,0,0,0-.09-.379,3.1,3.1,0,0,0-.126-.379c-.018-.036-.018-.09-.036-.126l-.072-.234-.018-.036a1.04,1.04,0,0,0-.325-.451.55.55,0,0,0-.126-.09l-.018-.018-.09-.054-.018-.018a.846.846,0,0,0-.6-.054c-.18.018-.7.072-1.208.144-.18.036-.379.072-.559.108-.036-.054-.054-.108-.09-.162a1.061,1.061,0,0,0-.072-.108c-.018-.018-.018-.018-.018-.036l-.018-.036-.18-.253c.108-.144.216-.307.325-.469.289-.433.541-.884.631-1.046a.925.925,0,0,0,.18-.685v-.018a1.131,1.131,0,0,0-.325-.613l-.036-.036a1.9,1.9,0,0,0-.162-.144l-.018-.018-.09-.09c-.108-.09-.2-.18-.325-.271l-.6-.451-.018-.018a1.127,1.127,0,0,0-.83-.162.924.924,0,0,0-.523.307c-.144.126-.523.469-.884.83-.126.126-.271.271-.4.415-.054-.018-.126-.054-.18-.072a.752.752,0,0,0-.162-.054l-.18-.072-.108-.036-.072-.018a12.655,12.655,0,0,0-.09-1.443l-.036-.307a.885.885,0,0,0-.162-.559,1.245,1.245,0,0,0-.325-.289,1.138,1.138,0,0,0-.415-.144,1.578,1.578,0,0,0-.289-.036h-.072c-.126-.018-.289-.018-.433-.036-.2-.018-.379-.018-.577-.018h-.216a1.24,1.24,0,0,0-.433.09,1.192,1.192,0,0,0-.361.253.87.87,0,0,0-.234.541c-.018.072-.036.2-.072.325-.054.271-.108.577-.144.866-.036.2-.054.4-.072.559H694.9a.2.2,0,0,1-.09.018l-.18.054a1.5,1.5,0,0,0-.271.072.881.881,0,0,1-.126.054,16.572,16.572,0,0,0-1.154-1.371.875.875,0,0,0-.487-.361,1.176,1.176,0,0,0-.433-.036,1.138,1.138,0,0,0-.415.144l-.649.379-.631.451a2.156,2.156,0,0,0-.216.2v1.407c.108.216.253.541.415.848.072.162.18.325.271.505-.036.036-.054.072-.09.09a1.916,1.916,0,0,0-.162.2h0l-.126.162-.054.09h-.018c0,.018-.018.018-.018.036-.072-.018-.144-.054-.216-.072v1.281c.126.036.216.072.271.09l.469.162.307-.505a2.639,2.639,0,0,1,.162-.234.547.547,0,0,0,.09-.126l.108-.144a.018.018,0,0,1,.018-.018l.054-.054v-.018c.072-.09.2-.2.325-.361l.4-.4-.234-.379-.054-.09a.392.392,0,0,1-.054-.09c-.126-.216-.271-.469-.4-.7a9.764,9.764,0,0,1-.451-.956l.451-.325.487-.289a12.777,12.777,0,0,1,1.19,1.425l.018.018.072.09.271.379.451-.162.072-.036.018-.018a2.469,2.469,0,0,0,.451-.162h.018a.135.135,0,0,1,.09-.018l.2-.054a.335.335,0,0,0,.126-.036h.018a1.366,1.366,0,0,1,.289-.054l.6-.072.036-.505c0-.072.036-.487.108-.938.036-.271.09-.559.144-.812.018-.09.036-.162.054-.234h.126a3.775,3.775,0,0,1,.433.018,4.082,4.082,0,0,0,.451.018h.126l.018.253c.036.289.054.559.072.812.018.4.018.758.018.956l-.018.469.649.162c.054.018.108.018.144.036l.09.036.09.036.162.054.18.072a.8.8,0,0,1,.216.108.844.844,0,0,1,.18.09c.018.018.054.018.072.036l.433.216.343-.4.09-.09c.162-.18.361-.4.541-.577a7.935,7.935,0,0,1,.776-.721l.469.361a2.156,2.156,0,0,1,.216.2l.108.108.054.054c-.108.2-.325.559-.559.9-.2.307-.415.6-.559.776l-.289.4.307.379c.018.018.036.036.036.054h.018c.162.216.271.361.361.469v.036a.018.018,0,0,0,.018.018l.271.469c.018.018.018.036.036.054s.018.018.018.036a.063.063,0,0,0,.018.036l.216.433.469-.108c.18-.036.559-.126.938-.18.415-.072.848-.126,1.046-.144l.018.072.144.451c.036.18.072.343.108.469a.108.108,0,0,0,.018.072c-.2.09-.6.271-.974.415-.343.126-.685.234-.9.307l-.469.144.036.487V68l-.072.649v.018l-.018.072-.054.289c-.325.234-.649.469-.956.721a13.521,13.521,0,0,1-1.84.92,19.323,19.323,0,0,0-8.8.469l.054-.036-.271-.451v-.018c-.018-.036-.018-.054-.036-.09l-.216-.415-.469.108v2.4c3.319-1.569,7.972-1.425,10.75-.721Z"
                                    transform="translate(-559.645 -25.818)"></path>
                                <path class="a"
                                    d="M697.024,404.614l.7-.866a7.252,7.252,0,0,1,1.028.758l-.758.974A5.577,5.577,0,0,0,697.024,404.614Zm-1.5-.938.685-.848c.361.2.7.4,1.046.6l-.685.848C696.231,404.073,695.888,403.856,695.527,403.676Zm-2.128-.884.721-.9a14.6,14.6,0,0,1,1.569.667l-.685.848c-.523-.234-1.064-.433-1.605-.613Zm-1.136-.289c-.253-.054-.505-.09-.758-.126l.721-.92c.126.018.253.018.361.036a6.737,6.737,0,0,1,.938.2l-.74.92c-.162-.018-.343-.072-.523-.108Zm8.153,3.445-.469.613a6.6,6.6,0,0,1-1.335-.667l.7-.92.451-.577a6.785,6.785,0,0,1-.559-.451,16.1,16.1,0,0,0-6.493-3.1H692.7c-.523-.054-1.064-.108-1.587-.144l-.036,1.19-.054.451v.758l.036-.054c.325.036.667.09.992.144a10.411,10.411,0,0,1,5.519,2.868c.054.054.234.216.234.216a4.731,4.731,0,0,0,2,.974,2.859,2.859,0,0,1-.866,1.623,2.242,2.242,0,0,0-.523-.487,2.769,2.769,0,0,0-1.8-.415,6.041,6.041,0,0,1-1.569-.253,4.97,4.97,0,0,1-1.714-1.3,5.344,5.344,0,0,0-.866-1.046A2.736,2.736,0,0,0,691,404.83v.685a2.049,2.049,0,0,1,.974.307,7.68,7.68,0,0,1,1.064,1.353,6.736,6.736,0,0,0,1.407,1.046,6.517,6.517,0,0,0,2.219.451h0a.229.229,0,0,0,.108-.018,2,2,0,0,1,1.172.234,3.63,3.63,0,0,1,.451.415c-.018,0-.018.018-.036.018l.379.6.108-.072h.018l.018.018c.036-.036.072-.054.108-.09a3.614,3.614,0,0,0,.433-.289l-.054-.072a4.562,4.562,0,0,0,1.154-2.038l.054-.2c.018-.09.054-.469.054-.469a2.69,2.69,0,0,1-.379-.036l.343-.451.289-.379.343-.415-1.7-.325Z"
                                    transform="translate(-560.383 -321.542)"></path>
                                <path class="a"
                                    d="M731.2,369.256a7.3,7.3,0,0,1,3.643,1.713l.487-.9a6.48,6.48,0,0,0-3.661-1.768Z"
                                    transform="translate(-593.333 -294.986)"></path>
                                <path class="a"
                                    d="M720.3,388.674a7.3,7.3,0,0,1,3.68,1.786l.487-.938a6.3,6.3,0,0,0-3.643-1.822Z"
                                    transform="translate(-584.399 -310.887)"></path>
                                <path class="a"
                                    d="M725.9,378.8a7.379,7.379,0,0,1,3.661,1.768l.487-.92a6.48,6.48,0,0,0-3.68-1.75Z"
                                    transform="translate(-588.989 -302.854)"></path>
                                <path class="a"
                                    d="M695.971,361.963a9.61,9.61,0,0,0-2.255-1.281c0-.018.018-.018.036-.018.108-.09.379-.487.253-.577s-.379.018-.559.144c-.018-.2-.09-.4-.216-.451-.144-.054-.307.415-.307.559v.054a8.131,8.131,0,0,0-1.587-.379l-.036.577v.487a9.96,9.96,0,0,1,4.2,1.786l.469-.9Z"
                                    transform="translate(-560.629 -287.999)"></path>
                                <path class="a"
                                    d="M691.259,374.046c0,.018.126.018.144.018a9.57,9.57,0,0,1,2.994,1.587l.469-.9A10.727,10.727,0,0,0,691.3,373,5.283,5.283,0,0,0,691.259,374.046Z"
                                    transform="translate(-560.588 -298.838)"></path>
                                <path class="a"
                                    d="M696.98,348.9c-.072-.036-.09-.054-.162-.09-.2-.108-.379-.2-.577-.307a.4.4,0,0,0,.271-.144c.108-.09.379-.487.253-.577s-.379.018-.577.144c-.018-.2-.09-.4-.216-.433-.144-.054-.289.415-.307.559a.371.371,0,0,0,0,.2,18.262,18.262,0,0,0-3.048-.992.465.465,0,0,0,.144-.234c.054-.126.126-.613-.036-.631s-.361.234-.469.433c-.108-.2-.307-.451-.469-.433s-.072.505-.036.631l.036.072-.685-.108v1.028a15.766,15.766,0,0,1,5.339,1.876Z"
                                    transform="translate(-560.465 -277.032)"></path>
                                <path class="a"
                                    d="M698.315,433.85a2.423,2.423,0,0,0-.577-.559,2.643,2.643,0,0,0-1.8-.415,5.318,5.318,0,0,1-1.569-.253,4.81,4.81,0,0,1-1.714-1.317,5.928,5.928,0,0,0-.866-1.046,2.749,2.749,0,0,0-.685-.361v.7c.072.036.126.054.2.09a7.682,7.682,0,0,1,1.064,1.353,6.736,6.736,0,0,0,1.407,1.046,6.517,6.517,0,0,0,2.219.451h.018a1.989,1.989,0,0,1,1.281.216,2.055,2.055,0,0,1,.451.415c-.018,0-.018.018-.036.018l.379.6a5.277,5.277,0,0,0,.667-.433l-.09-.09C698.549,434.139,698.441,433.994,698.315,433.85Z"
                                    transform="translate(-560.465 -345.475)"></path>
                                <path class="a"
                                    d="M761.674,294.487a.493.493,0,1,0-.144.343A.528.528,0,0,0,761.674,294.487Z"
                                    transform="translate(-617.512 -234.087)"></path>
                                <path class="a"
                                    d="M753.387,291.474a.485.485,0,0,0,.487-.487.487.487,0,0,0-.974,0A.485.485,0,0,0,753.387,291.474Z"
                                    transform="translate(-611.119 -231.219)"></path>
                                <path class="a" d="M795.713,285.324l1.317-2.4-.613-.325-1.317,2.417Z"
                                    transform="translate(-645.707 -224.743)"></path>
                                <path class="a" d="M804.2,289.842l1.317-2.417-.6-.325-1.317,2.417Z"
                                    transform="translate(-652.674 -228.432)"></path>
                                <path class="a" d="M812.513,294.424l1.317-2.4-.613-.325-1.317,2.417Z"
                                    transform="translate(-659.477 -232.202)"></path>
                                <path class="a"
                                    d="M702.217,312.765a14.22,14.22,0,0,1,1.281.938l-3.643,6.926c-.6-.415-1.912-1.263-2.4-1.515s-2.074-.884-2.778-1.154l3.86-6.818c.559.2,1.75.613,2.6,1.01A6.187,6.187,0,0,1,702.217,312.765Zm-3.5-7.611c.018,0,.018,0,.036-.018a.249.249,0,0,0,.072.054Zm22.113.974a2.355,2.355,0,0,0-1.118-.108,15.158,15.158,0,0,0-1.984.487c-.433.108-.866.271-1.317.379a4.275,4.275,0,0,1-1.263.18c-.108,0-.2-.018-.307-.018a.4.4,0,0,1-.144-.018h-.054c-.234-.036-.451-.09-.667-.144a6.951,6.951,0,0,1-1.154-.451,8.426,8.426,0,0,1-1.082-.685,7.149,7.149,0,0,0-1.118-.685,3.754,3.754,0,0,0-2.8-.144c-.379.108-.758.216-1.154.289a4.3,4.3,0,0,1-.469.09c-.072.018-.144.018-.216.036l-.108.018h-.054a6.621,6.621,0,0,1-1.335.018h-.036a.229.229,0,0,0-.108-.018,6.241,6.241,0,0,1-1.7-.559c-.18-.09-.361-.2-.541-.289-.126-.072-.234-.144-.361-.216h-.018a1.348,1.348,0,0,0-.216-.126,15.628,15.628,0,0,0-5.177-2.778,19,19,0,0,0-4.581-.848c-.307-.018-.613-.036-.92-.036v.884c.234,0,.451.018.667.018.307.018.613.036.92.072l.523.054.108.018h.054a1.577,1.577,0,0,0,.289.036,16.726,16.726,0,0,1,2.327.523c.415.126.848.271,1.245.415l.307.126.126.054.018.018.108.054a14.7,14.7,0,0,1,2.038,1.082,13.354,13.354,0,0,1,1.371.992l.018.018.018.018a9.535,9.535,0,0,0-.974.938c-.379-.2-.758-.4-1.154-.577.126.036.234-.036.343-.144.108-.09.4-.487.271-.577s-.4.018-.577.144c-.018-.2-.09-.4-.216-.433-.144-.054-.289.415-.307.559a.406.406,0,0,0,.018.253,19.889,19.889,0,0,0-3.193-1.01.486.486,0,0,0,.126-.144c.072-.108.289-.559.144-.613s-.379.09-.523.253c-.054-.2-.162-.379-.289-.4-.162-.018-.216.469-.216.6a.431.431,0,0,0,.036.162,20.855,20.855,0,0,0-2.164-.271.642.642,0,0,0,.072-.162c.054-.126.126-.613-.036-.631s-.361.234-.469.433c-.108-.2-.307-.451-.469-.433s-.072.505-.036.631c.018.036.018.072.036.108h-.09a3.924,3.924,0,0,1-.451-.018l-.018,1.263h.415a18.415,18.415,0,0,1,7.918,2,10.333,10.333,0,0,0-.685,1.118c-.4-.2-.812-.4-1.227-.559a.478.478,0,0,0,.108-.09c.108-.09.4-.487.253-.577-.126-.09-.379.018-.577.144-.018-.2-.09-.4-.216-.433-.144-.054-.289.415-.325.559v.126a16.868,16.868,0,0,0-2.074-.577l.018-.036c.072-.108.289-.559.144-.613s-.379.09-.541.234c-.054-.18-.162-.379-.289-.4-.162-.018-.216.469-.216.6v.054c-.469-.072-.956-.144-1.425-.18.018-.036.036-.09.054-.126.036-.126.126-.613-.036-.631s-.379.216-.469.433c-.108-.2-.307-.451-.469-.433s-.072.505-.036.631c0,.036.018.054.036.09h-.361l-.018,1.1h.379c4.185.126,8.026,1.822,10.191,4.365q-1.434-.622-2.922-1.136l-.4-.144-4.058,7.106a7.059,7.059,0,0,0-3.156-1.425q-.027,0-.054.108v.523l.018.271a5.718,5.718,0,0,1,2.9,1.533h0l.505.2c.018,0,2.182.848,2.832,1.19.631.343,2.435,1.587,2.453,1.605l.469.325,4.329-8.117-.289-.253a2.091,2.091,0,0,0-.361-.289l-.108-.253a9.992,9.992,0,0,0-2.4-3.084,9.631,9.631,0,0,1,1.569-1.858l.018-1.353a11.552,11.552,0,0,0-2.453,2.507c-.271-.2-.541-.379-.83-.559a.392.392,0,0,0,.09-.144,9.389,9.389,0,0,1,.559-1.01,8.464,8.464,0,0,1,.83-.974,12.228,12.228,0,0,1,1.01-.92,6.523,6.523,0,0,0,3.229.83,9.594,9.594,0,0,0,1.912-.289c.433-.108.848-.253,1.281-.343l.162-.036h.108a1.856,1.856,0,0,1,.307-.018,3.04,3.04,0,0,1,.6.054,7.136,7.136,0,0,1,2.219,1.245,7.207,7.207,0,0,0,2.453.974,4.867,4.867,0,0,0,1.353.054,7.351,7.351,0,0,0,1.389-.307c.4-.126.776-.216,1.172-.343.307-.09.613-.2.938-.271.162-.036.343-.072.505-.108h0a.066.066,0,0,0,.054-.018.352.352,0,0,0,.126-.018,1.356,1.356,0,0,1,.271,0h.162a1.886,1.886,0,0,1,.307.072l.018.018.108.054.162.108c.054.036.09.054.144.09.505-.018,1.01-.036,1.515-.09-.289-.18-.577-.361-.866-.559A2.755,2.755,0,0,0,720.831,306.127Z"
                                    transform="translate(-560.219 -239.415)"></path>
                                <path class="a"
                                    d="M722.215,248.117a4.767,4.767,0,0,0-1.515-.253l.794-3.084.938.234Zm-2.417-.162c-.361.072-.721.18-1.082.271-.307.072-.6.162-.9.253l1.912-4.148.938.234Zm-14.736-9.469,2.074.685-2.8,1.515ZM703.42,240.7c-.289-.162-.469-.289-.469-.289a13.36,13.36,0,0,0-1.3-.956l.054-.072,2.435-.866Zm-2.669-1.894-.144.054a17.7,17.7,0,0,0-6.872-2.02,18.878,18.878,0,0,0-2.02-.036l.884-1.641h.559a15.334,15.334,0,0,1,8.261,2.4Zm7.666-1.786-.487,1.515-1.948-.649Zm.956-.162,1.353.379-1.786.974.433-1.353Zm6.89-2.615-4.455,2.417-1.317-.361,5.772-2.056Zm.162,8.91-1.984,3.607-5.916-3.193,1.984-3.607,5.916,3.192Zm-1.8-3.643.92,2.4-3.716-2,2.8-.4ZM728.095,249c-.307.072-.613.162-.92.253-.216.054-.415.108-.631.144h-.234c-.108,0-.216-.018-.325-.018.072,0-.108-.018-.126-.018-.072-.018-.144-.018-.2-.036a10.441,10.441,0,0,1-1.8-.559l-.09-.036-.018-.018a.056.056,0,0,1-.036-.018l-.216-.09c-.126-.054-.271-.108-.415-.162l.541-8.153a2.832,2.832,0,0,1-.866.09l-.234,3.752-.776-.2.9-3.571a2.175,2.175,0,0,1-.83-.216l-.9,3.571-.776-.2,1.587-3.409a2.484,2.484,0,0,1-.721-.505l-4.058,8.712-.216.451h0a6.3,6.3,0,0,1-1.01.018c-.09-.018-.18-.018-.289-.036a5.918,5.918,0,0,1-1.1-.325.063.063,0,0,1-.036-.018l-.036-.018c-.036-.018-.054-.036-.09-.036l-.271-.126a4.582,4.582,0,0,1-.505-.289c-.343-.2-.649-.433-.974-.649a4.3,4.3,0,0,0-2.255-.83,8.321,8.321,0,0,0-2.309.451c-.271.054-.541.126-.812.162l-.18.036h-.018a.229.229,0,0,0-.108.018,4.931,4.931,0,0,1-1.263,0h-.018c-.054,0-.09-.018-.144-.018h0a7.8,7.8,0,0,0,1.822-4.148l.018-.343a3.47,3.47,0,0,0,.018-.433h-.018v-.361a5.825,5.825,0,0,1-.794,0,5.026,5.026,0,0,1-1.515-.415l11.814-6.385-.992,1.894a.335.335,0,0,0-.036.126.307.307,0,0,0,.018.126c.018.036.036.09.054.126a.478.478,0,0,0,.108.09l.144.09a.844.844,0,0,1,.343,1.154.888.888,0,0,1-.505.415.819.819,0,0,1-.649-.072.888.888,0,0,1-.415-.505.818.818,0,0,1,.072-.649l-.613-.325a1.42,1.42,0,0,0-.18.667,1.5,1.5,0,0,0,.126.685l-3.355.523-.234-.126a.334.334,0,0,0-.126-.036.307.307,0,0,0-.126.018c-.036.018-.09.036-.126.054-.036.036-.072.054-.09.108l-2.309,4.221a.334.334,0,0,0-.036.126.306.306,0,0,0,.018.126c.018.036.036.09.054.126.036.036.072.054.108.09l6.529,3.517a.339.339,0,0,0,.469-.144l2.309-4.221a.415.415,0,0,0,.036-.253.3.3,0,0,0-.162-.2l-.523-.289-.938-2.705a1.536,1.536,0,0,0,1.5-1.587,1.553,1.553,0,0,0-.18-.685,1.316,1.316,0,0,0-.469-.523l1.443-2.579.018-.018-.4-1.461-15.187,5.357.018-.036.559-1.028-.289-.144a15.228,15.228,0,0,0-2.778-1.605l.6-1.082.541-.974.631-1.082-3.752-.234,2.074,1.822-.7,1.281a17.363,17.363,0,0,0-5.988-1.118h-.018c-.415,0-.83,0-1.263.036l-.631,1.154-.018.018v2.651a18.837,18.837,0,0,1,2.255.018,15.233,15.233,0,0,1,8.874,3.481c.09.072.4.289.4.289a7.047,7.047,0,0,0,3.211,1.172,5.583,5.583,0,0,1-1.84,3.86c-.162-.072-.343-.144-.505-.234a10.62,10.62,0,0,1-1.154-.667,15.628,15.628,0,0,0-5.177-2.778,18.981,18.981,0,0,0-4.6-.848,13.717,13.717,0,0,0-1.5-.036v.884c.415,0,.83,0,1.245.036.307.018.613.036.92.072l.523.054.108.018c-.126-.018.018,0,.054,0a18.239,18.239,0,0,1,3.878.974l.307.126a.54.54,0,0,1,.144.072c.253.108.505.216.74.343A13.178,13.178,0,0,1,702,246.547l.018.018c.018.018.054.036.072.054a7.761,7.761,0,0,0,3.788,1.407,7.285,7.285,0,0,0,1.659-.144c.289-.054.577-.126.866-.18.4-.108.776-.234,1.19-.307a2.879,2.879,0,0,1,2.02.415c.325.2.613.415.938.631a9.023,9.023,0,0,0,.992.6,6.334,6.334,0,0,0,2.291.667,5.37,5.37,0,0,0,2-.253,2.553,2.553,0,0,0,.4-.126c.343-.108.685-.2,1.028-.289l.216-.072.09-.018c.162-.036.307-.072.469-.108.054-.018.108-.018.162-.036h.054c.054,0,.108-.018.144-.018h.09a4.583,4.583,0,0,1,.7.018h.054l.162.036a4.286,4.286,0,0,1,.685.2.066.066,0,0,0,.054.018,4.4,4.4,0,0,1,.433.18c.072.036.144.054.216.09l.072.036c.018.018.054.018.072.036l.036.018c.271.108.523.216.776.325a9.716,9.716,0,0,0,1.75.505,3.231,3.231,0,0,0,1.5-.018c.253-.054.487-.126.74-.2l.469-.126.162-.036h.343a.109.109,0,0,1,.072.018,1.963,1.963,0,0,1,.433.126c.379-.108.758-.2,1.118-.325a2.619,2.619,0,0,0-1.425-.667A1.546,1.546,0,0,0,728.095,249Z"
                                    transform="translate(-560.629 -183.352)"></path>
                                <path class="a"
                                    d="M937.2,193.073c0-.036-.018-.054-.018-.072l-.271-.667a.392.392,0,0,0,.09-.144.25.25,0,0,0,0-.162.563.563,0,0,0-.09-.18.374.374,0,0,0-.18-.108c-.054-.018-.072-.018-.09-.108a.844.844,0,0,0-.09-.18c-.18-.2-.379-.4-.577-.577a.232.232,0,0,0-.18-.072.3.3,0,0,0-.18.054.18.18,0,0,0-.072.09.257.257,0,0,0-.036.108.3.3,0,0,0,.09.216l.108.126.379.379c.018.018.018.036.036.054a.479.479,0,0,0-.09.108.34.34,0,0,0-.036.144.425.425,0,0,0,.036.144.265.265,0,0,0,.09.108.481.481,0,0,0,.253.126c.09.216.18.451.271.667a.135.135,0,0,0,.126.108,1.028,1.028,0,0,1,.234.018l.253.018-.054-.2Z"
                                    transform="translate(-760.784 -149.501)"></path>
                                <path class="a"
                                    d="M934.052,206.591l.433.271c.018-.072.018-.126.036-.2a3.149,3.149,0,0,1,.649-1.208l.054-.054h.108l1.84.09h.108c.018.018.018.036.036.072a3.54,3.54,0,0,1,.523,1.263,1.96,1.96,0,0,1,.018.721l-.036.2c.271-.036.577-.09.83-.144l.018-.108a4.326,4.326,0,0,0-.036-.83,4.144,4.144,0,0,0-.649-1.569,1.17,1.17,0,0,0-.289-.307,1.14,1.14,0,0,0-.469-.126l-1.84-.09a.922.922,0,0,0-.487.072.932.932,0,0,0-.325.271,4.078,4.078,0,0,0-.776,1.461l.054.036A1.8,1.8,0,0,0,934.052,206.591Z"
                                    transform="translate(-759.39 -160.782)"></path>
                            </g>
                        </svg>